<svg xmlns="http://www.w3.org/2000/svg" viewBox="26.04335127127257 -55.38525014914353 119.49978597053013 65.74523763047148"><path d="M141.00021040259185 2.60015105551566 L141.01705691951895 5.859021905138071 L141.03385176001382 9.117892754760483 L140.14341515519254 8.29716765710095 L139.1277665549281 8.096042982620979 L138.881476678625 8.380935153846075 L137.61447391169287 8.41168263105974 L138.03909915583517 7.597882175327321 L138.66862145401478 7.320224704623087 L138.4079138531023 6.232849216337485 L137.92783979711078 5.393365573756 L135.98925011611345 4.54654387778907 L135.16459760959975 4.462931410340822 L133.66288048719787 3.538853448097541 L133.36770470594672 4.024818617370315 L132.98395551974727 4.112978610860253 L132.75694095268904 3.746282647317123 L132.75378869031925 3.31178720460705 L131.98980431531618 2.820551039240499 L133.0668445171434 2.460417982598436 L133.78003095920354 2.479848321140182 L133.69621178602614 2.214541517753702 L132.23237348849426 2.212526136894319 L131.83622195854474 1.617161960459647 L130.94283979708285 1.432522067880783 L130.5195581401801 0.937720228686089 L131.8675378765136 0.695461114101789 L132.3801164084167 0.369537855636949 L133.98554813042836 0.780210463060456 L134.14336795464772 1.151867364103623 L134.42262739475302 2.769184665542376 L135.45760298069467 3.367752780779149 L136.29331424371884 2.307042331556154 L137.44073774632756 1.703513278819365 L138.3297274110447 1.702686455902693 L139.18492068904288 2.051295668143673 L139.92668419816044 2.409051608900313 L141.00021040259185 2.60015105551566 z " fill-rule="evenodd" fill="white" stroke="black" stroke-width="0.1%"></path><path d="M124.96868248911623 8.892790215697083 L125.07001997284061 9.089987481322872 L125.08852013560109 9.393173109579294 L124.43595014861933 10.140000909061449 L123.57998172413669 10.359987481327956 L123.459989048355 10.239994805546223 L123.55000939340744 9.900015557497987 L123.9800089865081 9.290026950724716 L124.96868248911623 8.892790215697083 z " fill-rule="evenodd" fill="white" stroke="black" stroke-width="0.1%"></path><path d="M134.21013390516885 6.89523772545472 L134.11277550673094 6.142467136259 L134.29033572808584 5.783057549669017 L134.49962527886788 5.445042006047871 L134.72700158095216 5.737582289252167 L134.7246244650667 6.214400730009288 L134.21013390516885 6.89523772545472 z " fill-rule="evenodd" fill="white" stroke="black" stroke-width="0.1%"></path><path d="M117.88203494677018 -4.137551377779516 L117.3132324565335 -3.234428208830593 L118.0483297058854 -2.287690131027333 L117.87562706916597 -1.827640692548925 L118.99674726773816 -0.902219143066063 L117.8118583517178 -0.784241848143708 L117.47833865770603 -0.102474676917026 L117.52164350796664 0.803723239753268 L116.56004845587947 1.48766082113621 L116.5337968282752 2.483517347832901 L116.14808393764866 4.012726332214022 L116.00085778204911 3.657037448749058 L114.86480309454456 4.106984144714396 L114.46865156459506 3.495703627133828 L113.75567182826407 3.43916961020652 L113.25699425664752 3.118775729996905 L112.06812625534067 3.478392022316051 L111.70329064336005 2.994442233902654 L111.04824018762824 3.049425957861211 L110.223846063276 2.934032484553455 L110.07093550012434 1.592874037282463 L109.571947869914 1.314906507984475 L109.0918738139225 0.459506524257094 L108.9526575053282 -0.415375474444318 L109.06913618371408 -1.341933905437614 L109.66326012577375 -2.006466986494956 L109.83022667850881 -1.338135687664163 L110.51406090702716 -0.773131415200965 L111.15913781132662 -0.976478176269481 L111.79754845586041 -0.904441229654608 L112.38025190638359 -1.410120957846743 L112.85980919805218 -1.497790025229904 L113.8058496440195 -1.217548732911069 L114.62135542201753 -1.430688177898901 L115.13403730678522 -2.821481838386234 L115.51907840379198 -3.169238389494396 L115.8655172058767 -4.3065591495901 L117.01521447150628 -4.306094061699469 L117.88203494677018 -4.137551377779516 z " fill-rule="evenodd" fill="white" stroke="black" stroke-width="0.1%"></path><path d="M129.37099775606094 2.802154229344595 L130.47134402885177 3.093764336767634 L130.83483605359282 3.858472181822776 L129.99054650280817 3.446300957862796 L129.15524865124235 3.362636813982248 L128.59068362845363 3.428679294451264 L127.89889122936235 3.393435967628207 L128.13587934785284 2.843650404474971 L129.37099775606094 2.802154229344595 z " fill-rule="evenodd" fill="white" stroke="black" stroke-width="0.1%"></path><path d="M126.87492272349886 3.790982761249587 L126.18380211802736 3.607376397316564 L125.98903364471926 3.177273451351305 L127.00065148326497 3.129317722184446 L127.24921512258891 3.45906503663889 L126.87492272349886 3.790982761249587 z " fill-rule="evenodd" fill="white" stroke="black" stroke-width="0.1%"></path><path d="M127.93237755748748 -2.174596258956569 L128.00415612194087 -1.628531398928345 L128.5945593608755 -1.540810655112878 L128.6882487326207 -1.132385972494063 L128.63595218314134 -0.258485826006194 L128.1201697124361 -0.356412665199286 L127.96803429576886 0.252077325037519 L128.3799988139997 0.7800037573313 L128.1000159038423 0.899996433113031 L127.69647464407507 0.266598402511534 L127.39949018769369 -1.011721503092545 L127.60051150930906 -1.810690822757195 L127.93237755748748 -2.174596258956569 z " fill-rule="evenodd" fill="white" stroke="black" stroke-width="0.1%"></path><path d="M122.9275667664518 -0.875192368977409 L124.07752241424288 -0.917101955566125 L125.0659892111218 -1.64325918213153 L125.2405005229715 -1.419836127117605 L124.4370353536974 -0.427881171058957 L123.6855049988767 -0.235593166500891 L122.72308312387287 -0.431136786293337 L121.05672488818911 -0.381217352699394 L120.18308312386272 -0.237246812334234 L120.04086958219548 0.519657891444837 L120.93590538949073 1.408905938323393 L121.4758207540762 0.95596200928513 L123.34056481332846 0.615672702643138 L123.25839928598441 1.076213067228309 L122.82271528533161 0.930950616055853 L122.38852990121529 1.516858005381117 L121.50827355355551 1.904482924002458 L122.4545723816843 3.186058444840924 L122.2718961935325 3.529500013852712 L123.17096276254655 4.683693129091701 L123.1623327983538 5.340603936385996 L122.62851525277875 5.634591159694466 L122.23639448454801 5.282933037948268 L122.71956912647701 4.464171644715826 L121.73823367725436 4.851331475446543 L121.48946333220127 4.574552504091265 L121.61917117725386 4.188477878438682 L120.89818159391766 3.602105401222794 L120.97238895068878 2.627642917494939 L120.30545291552986 2.931603692235733 L120.39004723519167 4.097579034037274 L120.43071658740537 5.528241062037793 L119.79654341031949 5.673400160345665 L119.36690555224489 5.37987802492782 L119.65360639860017 4.459417412944973 L119.49883548388601 3.494411716326532 L119.07834435432704 3.487021986508793 L118.76776899625287 2.801999200047718 L119.18097374885869 2.147103773612805 L119.3233939962551 1.353147067880464 L119.82599897672587 -0.154254462073482 L120.0357019389663 -0.566477362465761 L120.88577925016762 -1.30922272379685 L121.66681684782696 -1.013943589681091 L122.9275667664518 -0.875192368977409 z " fill-rule="evenodd" fill="white" stroke="black" stroke-width="0.1%"></path><path d="M120.29501427620689 10.258649997603591 L118.96780846565471 9.557969252158074 L119.90030968636157 9.361340427287502 L120.42575564990534 9.665921319215798 L120.77550174365675 9.96967538822743 L120.71560875863045 10.239581394087885 L120.29501427620689 10.258649997603591 z " fill-rule="evenodd" fill="white" stroke="black" stroke-width="0.1%"></path><path d="M121.34166873584651 8.536739597206072 L122.00736453663043 8.460620212440148 L122.90353722543607 8.094234307490765 L122.75698286345632 8.649807631060696 L121.2544905945701 8.933666273639957 L119.92439090380958 8.81041798262384 L119.92092858284605 8.444858900591122 L120.71509199430757 8.236964613480914 L121.34166873584651 8.536739597206072 z " fill-rule="evenodd" fill="white" stroke="black" stroke-width="0.1%"></path><path d="M118.26061648974044 8.362383314653293 L118.87845991422208 8.280682875199844 L119.12650678922307 8.705824883665088 L117.97040164598928 8.906639499551304 L117.27773074754901 9.040894870645594 L116.74014082241665 9.032936700072646 L117.0837374207253 8.45715789147659 L117.6320243673421 8.449303073768228 L117.90001834520776 8.09568124759494 L118.26061648974044 8.362383314653293 z " fill-rule="evenodd" fill="white" stroke="black" stroke-width="0.1%"></path><path d="M108.48684614464926 6.42198495852574 L108.62347863162896 6.777673841990705 L110.53922732955328 6.877357679881726 L110.75957563684585 6.465186455921747 L112.6148112325564 6.946035658397626 L112.97876834518806 7.594213148634594 L114.47893517462114 7.776527601760328 L115.70552697150106 8.370806573116873 L114.56451134649649 8.751816908404855 L113.46473351446085 8.348947442257405 L112.55967247930097 8.376180922075221 L111.52206139531245 8.302128594600973 L110.58614953007432 8.122604668819001 L109.42766727095511 7.740664157749762 L108.69365522668133 7.641600437046243 L108.27776329959633 7.766657403192576 L106.45410200401612 7.354899590690934 L106.28062422081231 6.924899997590252 L105.36548628135552 6.851416110871206 L106.05164594932702 5.895918877794472 L107.2650085795402 5.954985039904081 L108.07209109907467 6.345762220895224 L108.48684614464926 6.42198495852574 z " fill-rule="evenodd" fill="white" stroke="black" stroke-width="0.1%"></path><path d="M104.36999148968489 1.084843031421059 L104.53949018760221 1.782371514496766 L104.88789269411402 2.340425306816705 L105.62211144411697 2.428843682468099 L106.10859337771265 3.061776625178965 L105.85744591677414 4.305524997579774 L105.8176550639094 5.85235564537242 L104.71038414919144 5.873284600450632 L103.86821333213078 5.037314955264996 L102.5842606954069 4.220258884298183 L102.156173130301 3.614146009946801 L101.39911339722507 2.799777113459164 L100.90250288290015 2.050262139497832 L100.14198082886065 0.650347588710986 L99.26373986206028 -0.183141587724634 L98.97001102091326 -1.042882391764536 L98.60135135294306 -1.823506577965574 L97.69959760944985 -2.45318390544206 L97.17694217324984 -3.308790594898596 L96.42401655475726 -3.868859768077925 L95.3808760925135 -4.970782172053688 L95.29302615761729 -5.479820868344788 L95.93686282754174 -5.439513251157123 L97.4848820332771 -5.246320909033955 L98.36916914265566 -4.268370266126396 L99.1425586283358 -3.590349636240873 L99.69399783732241 -3.174328518075143 L100.64143354696162 -2.099381211755741 L101.65801232300734 -2.083697414555161 L102.49827111207323 -1.398700466310231 L103.07684044801303 -0.561361395668868 L103.83839603069836 -0.104541734208695 L103.4376452982749 0.711945896002902 L104.01078860882404 1.059211521004286 L104.36999148968489 1.084843031421059 z " fill-rule="evenodd" fill="white" stroke="black" stroke-width="0.1%"></path><path d="M100.0857568705271 -6.464489447450291 L100.25959638875696 -6.642824815289543 L101.07551557821336 -6.204867051615921 L101.15421878459387 -5.691384182147715 L101.81428185425798 -5.810808417174242 L102.14118696493638 -6.221636053894628 L102.37114708863521 -6.128205064310919 L102.96170535686673 -5.524495144061106 L103.38121463421217 -4.855001125503748 L103.43857547405612 -4.181605536308339 L103.33212202353486 -3.726697902842986 L103.42942874554049 -3.382868760589005 L103.50244754436889 -2.791018581550176 L103.8546741068703 -2.515454006353764 L104.24793175661145 -1.631141058759084 L104.22881147666348 -1.293048000489492 L103.51970747275439 -1.226333726400682 L102.57361535035477 -1.967115383304687 L101.39063846232919 -2.760813706875581 L101.27353966675582 -3.270291652841152 L100.69543541870664 -3.93913971599487 L100.55740766805502 -4.767280381688295 L100.19670617065775 -5.312492580583708 L100.30626020711652 -6.040561835143905 L100.0857568705271 -6.464489447450291 z " fill-rule="evenodd" fill="white" stroke="black" stroke-width="0.1%"></path><path d="M117.88203494677018 -4.137551377779516 L117.01521447150628 -4.306094061699469 L115.8655172058767 -4.3065591495901 L115.51907840379198 -3.169238389494396 L115.13403730678522 -2.821481838386234 L114.62135542201753 -1.430688177898901 L113.8058496440195 -1.217548732911069 L112.85980919805218 -1.497790025229904 L112.38025190638359 -1.410120957846743 L111.79754845586041 -0.904441229654608 L111.15913781132662 -0.976478176269481 L110.51406090702716 -0.773131415200965 L109.83022667850881 -1.338135687664163 L109.66326012577375 -2.006466986494956 L110.3961352885371 -1.663774725751395 L111.16885298059748 -1.850636704918813 L111.37008100794205 -2.697303371588859 L111.7969283386729 -2.885896511238059 L112.99561486211522 -3.102394924324855 L113.71293541875868 -3.893509426281156 L114.20401655482837 -4.525873928236805 L114.65959598191353 -4.007636826997754 L114.8695573263154 -4.348313706881925 L115.34746097215066 -4.316636053887009 L115.40570031134361 -4.955227565933839 L115.45071048386981 -5.447729803891534 L116.22074100145102 -6.143191229675566 L116.72510298061971 -6.924771429873999 L117.12962609260047 -6.92805288332454 L117.64339318244627 -6.422166449403249 L117.68907514859231 -5.987490139180154 L118.34769127815224 -5.708695786965492 L119.18190392463997 -5.407835598162207 L119.11069380094176 -5.016128241389808 L118.43972700406408 -4.966518866389606 L118.6183207540648 -4.478202419447555 L117.88203494677018 -4.137551377779516 z " fill-rule="evenodd" fill="white" stroke="black" stroke-width="0.1%"></path><path d="M97.32711388549004 -28.26158274994634 L97.40256147663614 -27.882536119085444 L97.0519885599681 -27.69905894623315 L97.1339990580153 -27.083773505149964 L96.41936567585097 -27.264589341739224 L95.12476769407496 -26.5735720891323 L95.1551534362626 -26.001307277932085 L94.60324913938538 -25.162495428970402 L94.55265791217164 -24.675238348890336 L94.10674197792507 -23.85074087167348 L93.3251876159428 -24.078556423432204 L93.28632693885928 -23.043658352139005 L93.06029422401463 -22.70311066333557 L93.16612755734837 -22.278459580977103 L92.67272098182556 -22.041238918541254 L92.14603478390681 -23.627498684172593 L91.86992760617132 -23.624346421802784 L91.70647505083211 -22.985263983649187 L91.15896325069973 -23.50352692310439 L91.46772993364368 -24.072639471934792 L91.91509280799443 -24.130413723237112 L92.37620161333481 -24.976692816664965 L91.79959598182208 -25.147431748957317 L90.87221072791212 -25.132600612889547 L89.92069258012185 -25.26974986419218 L89.83248091019962 -25.96508209889548 L89.35509402868729 -26.014407253518073 L88.56304935094977 -26.446525580342723 L88.2097892598025 -25.768065700782714 L88.93155398962308 -25.238692328384776 L88.30637251175602 -24.866079413344206 L88.08442223506242 -24.501657212821925 L88.69994022009092 -24.23371491138856 L88.52976972855379 -23.631141872649167 L88.87631188350309 -22.87914642993783 L89.03196129756623 -22.055708319582976 L88.88876590368542 -21.690588487224748 L88.20849734899522 -21.703171698487807 L86.97570438024027 -21.49556163175521 L87.03316857294887 -20.743307806882413 L86.49935102737379 -20.151638495356607 L85.0602657409097 -19.4785788029711 L83.94100589390001 -18.302009792549725 L83.18921715691785 -17.67122142177898 L82.19279218946592 -17.016636053937816 L82.19124189649719 -16.556664130107848 L81.69271935417748 -16.310219224507904 L80.79199913933014 -15.951972357644493 L80.32489586784388 -15.89918488205835 L80.02506920768644 -15.136414903214147 L80.2332735533904 -13.835770778859981 L80.28629357292186 -13.006260687710835 L79.8625468281285 -12.056215318240888 L79.85799930208682 -10.35727509199711 L79.340511509116 -10.30885427493962 L78.88534549348918 -9.546135972527722 L79.1897196796883 -9.216543687370148 L78.2779407083305 -8.933046779816934 L77.94116539908435 -8.252959092639742 L77.53989790233794 -7.965534776232332 L76.59297895702167 -8.89927623131419 L76.13006147655108 -10.299630031775521 L75.7464673196485 -11.308250637248307 L75.39610110870959 -11.781245022015824 L74.86481570831683 -12.741935736537897 L74.61671715688354 -13.99258291264968 L74.44385949086723 -14.617221787977698 L73.5341992532334 -15.99065216721496 L73.11990929554943 -17.928570054592498 L72.82090945830865 -19.208233547436166 L72.8244751321368 -20.419503282141534 L72.6305334817454 -21.356009426351008 L71.17527347197395 -20.757441311114235 L70.4704586119451 -20.877330634031384 L69.16413008003883 -22.0892980005727 L69.6449276060824 -22.450774644454338 L69.34959679553435 -22.84317963306269 L68.1766451353734 -23.69196503345671 L68.84259931831878 -24.35913361256094 L71.04324018746823 -24.3565239527302 L70.84469933460284 -25.21510203704352 L70.2828731627256 -25.72222870533983 L70.16892662952202 -26.491871649678842 L69.51439293811313 -26.940965684511372 L70.61649620960193 -27.989196275335868 L71.77766564320032 -27.913180243434525 L72.8237516620847 -28.961591701772054 L73.45063846221743 -29.97641347911987 L74.42138024282028 -30.979814764931177 L74.40592898956501 -31.69263947196528 L75.25864179881322 -32.2711054550405 L74.45155927927871 -32.7648996038055 L74.10429365427734 -33.44147329358685 L73.74994835805197 -34.31769887952785 L74.24020267120497 -34.748887030571254 L75.75706098826834 -34.50492259372132 L76.87172163280403 -34.65354401299274 L77.83745079947457 -35.494009507787766 L78.91226891471322 -34.32193634697579 L78.81108646028574 -33.50619802503242 L79.20889163606859 -32.994394639613716 L79.17612877799553 -32.48377981213771 L78.45844648632601 -32.61816437431273 L78.73889448437401 -31.515906073527063 L79.7213668151071 -30.88271474865473 L81.11125613802932 -30.183480943313402 L80.4767212259174 -29.72986522065534 L80.08842451367627 -28.79447011974014 L81.05720258985203 -28.416095282499043 L81.99998742058497 -27.925479234319994 L83.30424889519955 -27.36450572357556 L84.6750179381738 -27.234901231387536 L85.25177859898338 -26.726198431906344 L86.02439293817918 -26.63098460540857 L87.2274719583663 -26.397898057556077 L88.06023766474982 -26.41461538340249 L88.17480431514092 -26.81040517832595 L88.04313276566123 -27.445818589786825 L88.12044070836987 -27.876541652939594 L88.73032596227856 -28.086864732367516 L88.81424848832056 -27.299315904239364 L88.83564253128938 -27.098966376243762 L89.74452762243885 -26.719402981059957 L90.37327477413407 -26.87572418874288 L91.21751264848643 -26.808648179628022 L92.03348351437509 -26.83831045176356 L92.10371178585974 -27.452614040633208 L91.69665652869668 -27.771741848251665 L92.50311893104364 -27.89687632904645 L93.41334760943269 -28.640629380807226 L94.56599043170294 -29.277438055939985 L95.40480228066464 -29.03171662039213 L96.11767866413103 -29.452802028922466 L96.58659061074749 -28.83097951915434 L96.24883344928779 -28.411030992134442 L97.32711388549004 -28.26158274994634 z " fill-rule="evenodd" fill="white" stroke="black" stroke-width="0.1%"></path><path d="M109.47520958866365 -18.197700913968575 L108.65520796105616 -18.507681993071387 L108.62621748254044 -19.367887885001906 L109.11905561730804 -19.821038519769345 L110.21159874882281 -20.101253973872033 L110.78655073450221 -20.077534491450052 L111.01005130416458 -19.69592987719072 L110.57064660038677 -19.25587921800927 L110.33918786015147 -18.678395087147592 L109.47520958866365 -18.197700913968575 z " fill-rule="evenodd" fill="white" stroke="black" stroke-width="0.1%"></path><path d="M80.2599902688853 -42.34999929459906 L80.1801501809943 -42.92006785742694 L80.86620649610126 -43.18036204688101 L79.96610639844141 -44.91751699480463 L81.9470707539181 -45.31702749285312 L82.45892581576906 -45.539649563166506 L83.18048383986047 -47.33003123635086 L85.16429039911324 -47.0009557155161 L85.72048383987067 -47.452969468773105 L85.7682328633083 -48.45575063739699 L86.59877648310336 -48.549181626980626 L87.35997033076265 -49.21498078062912 L87.75126427607671 -49.297197984405486 L88.01383222855173 -48.599462795600616 L88.85429772334676 -48.069081732772965 L90.28082563676392 -47.69354909930793 L90.97080936072501 -46.88814606382293 L90.58576826371828 -45.71971609148753 L90.9455395853343 -45.28607330991028 L92.13389082231822 -45.11507599545646 L93.4807336771413 -44.975472113619965 L94.68892866412533 -44.35233185482842 L95.30687544147153 -44.24133087826547 L95.76245486855669 -43.319449164394605 L96.34939578652781 -42.725635280928685 L97.45175744017801 -42.74888967546002 L99.51581749878004 -42.524691473961724 L100.84586551310827 -42.66380442969145 L101.83304039917994 -42.51487295182628 L103.31227827353482 -41.9074681666676 L104.52228193564899 -41.908346666016556 L104.96499393109347 -41.59740957291635 L106.12931562706169 -42.13432770442891 L107.74477257693795 -42.48151581478187 L109.24359581913146 -42.5194463160841 L110.41210330611528 -42.87123362891103 L111.12968224492023 -43.40683401140015 L111.82958784388137 -43.74311839453952 L111.66773725794323 -44.07317576758771 L111.34837690637946 -44.45744171811009 L111.8733061056003 -45.10207937273506 L112.43606245325881 -45.01164561622429 L113.46390669154417 -44.80889313412712 L114.46033165899607 -45.339816799493825 L115.98509647020009 -45.727235012386004 L116.71786828009886 -46.38820241961521 L117.42170128791419 -46.67273285581426 L118.87432579963873 -46.80541209572365 L119.66326989143876 -46.69267995867892 L119.7728239278975 -47.04805878355013 L118.86657433479495 -47.74706004494617 L118.06414269416672 -48.06673045510369 L117.29550744025741 -47.69770905210743 L116.30895267137323 -47.85341014260284 L115.74283735561579 -47.72654450132629 L115.48528201707306 -48.13538259540344 L116.19180219936757 -49.134598090199106 L116.67880089728612 -49.888531399121405 L117.8792444194264 -49.510983384796965 L119.2884607280258 -50.142882798862004 L119.27939 -50.58292 L120.18208000000016 -51.64355000000012 L120.7382 -51.96411 L120.72578901579197 -52.516226304730935 L120.17708865771681 -52.75388621684124 L121.00308475147017 -53.25140106873119 L122.24574791879283 -53.431725979213695 L123.57147 -53.4588 L125.06821129771038 -53.16104482686886 L125.94634891164617 -52.79279857035698 L126.56439904185697 -51.7842554795327 L126.93915652883766 -51.35389415140592 L127.28745568248485 -50.73979726826548 L127.65740000000028 -49.760270000000105 L129.39781782442043 -49.44060008401544 L130.58229332898242 -48.72968740497614 L130.9872600000001 -47.79013 L132.50669 -47.78896 L133.37359581922794 -48.18344167743487 L135.02631147678665 -48.478229885443874 L134.50081 -47.57845 L134.1123500000001 -47.21248 L133.76964399631288 -46.116926988299014 L133.09712000000013 -45.14409 L131.8834542176595 -45.32116160743652 L131.02519000000018 -44.96796 L131.28855512911548 -44.11151968034828 L131.1446879416149 -42.92998973242689 L130.63386640840974 -42.90301463477053 L130.63999970690955 -42.39502427522179 L129.99426720593323 -42.985386867843786 L129.59666873587952 -42.42498179785456 L128.0522152039723 -41.99428457291795 L128.20843305879066 -41.46677155208249 L127.34378299368302 -41.50315176041597 L126.86908328664987 -41.81656932226619 L126.18204511932943 -41.10733612727637 L125.07994184784064 -40.56982371679245 L124.26562462778531 -39.928493353834156 L122.86757042856095 -39.63778758397622 L122.1313879741309 -39.170451768544666 L121.05455447803286 -38.897471014962846 L121.58599490772248 -39.36085358332407 L121.37675703337268 -39.75026133885949 L122.16859500538106 -40.422442531896024 L121.64035851449353 -40.94638987890333 L120.76862877816194 -40.59338816991754 L119.63960208544907 -39.898055935214245 L119.02346398323306 -39.252333075511146 L118.04274865119791 -39.2042739934797 L117.53270226447711 -38.73763580988408 L118.05969852098964 -38.06147553156106 L118.87814985562832 -37.89732534438593 L118.91163618375344 -37.44846385349871 L119.70280236214205 -37.15638865818505 L120.8234574728236 -37.87042776137801 L121.711258579598 -37.48112335870718 L122.35793745329849 -37.45448415786072 L122.5199947449658 -36.93061432550185 L121.10416385303307 -36.651329047180425 L120.63700890511453 -36.111439520811075 L119.66456180224606 -35.60979055433772 L119.1512081238586 -34.90985911716044 L120.22752485563373 -34.36033193616865 L120.62036909391655 -33.37672272392514 L121.22901411345023 -32.46031871187719 L121.90814578663003 -31.692174384074647 L121.89191938689038 -30.949351508095106 L121.26425744027328 -30.6762674016487 L121.50351932178467 -30.14291494396429 L122.0921138855891 -29.83252045340315 L121.93842817595306 -29.01802236583478 L121.68443851123851 -28.225512600206617 L121.12566124886649 -28.135673122667185 L120.39547326058232 -27.05320689544932 L119.5854968608395 -25.740780544532612 L118.65687137255452 -24.54739085540024 L117.28160647997088 -23.624501451099658 L115.89073530483512 -22.78287323657807 L114.76382734584624 -22.668074042241667 L114.15254682826564 -22.22376007739615 L113.80677981980074 -22.5483397486214 L113.24107791550159 -22.051367499270455 L111.84359215703248 -21.550493679281473 L110.78546552942407 -21.397143866455338 L110.44403934127168 -20.34103261970633 L109.88986128137361 -20.282457383703488 L109.62765506392466 -21.008227037026703 L109.86448815311832 -21.395050970947523 L108.5228129415244 -21.715212307211814 L108.05018029178294 -21.55237986906012 L107.04342003787264 -21.811898912029914 L106.56727339073532 -22.21820486092477 L106.72540327354847 -22.79426788989842 L105.81124718630522 -22.976892401617903 L105.32920942588663 -23.352063300056912 L104.47685835166448 -22.819150092046968 L103.50451460166056 -22.70375661873921 L102.7069922221001 -22.708795070887675 L102.17043582561358 -22.464753119389304 L101.65201785686152 -22.318198757409547 L101.80311974488293 -21.17436676684507 L101.27002566935997 -21.201651923095184 L101.18000532430754 -21.436572984294028 L101.15003299357825 -21.849984442629022 L100.41653771362738 -21.558839423096614 L99.98348921102149 -21.7429367131364 L99.24089887898725 -22.11831431730458 L99.5319922220874 -22.94903880461258 L98.89874922078278 -23.14272207284253 L98.66026248575577 -24.063286037689966 L97.60471967976198 -23.897404690033042 L97.72460900267914 -25.083637193293 L98.67183800658916 -25.918702500913525 L98.71209394734451 -26.743535874940267 L98.68269005737046 -27.50881216075062 L98.2462309102333 -27.74722138112918 L97.91198774616944 -28.335945136014345 L97.32711388549004 -28.26158274994634 L96.24883344928779 -28.411030992134442 L96.58659061074749 -28.83097951915434 L96.11767866413103 -29.452802028922466 L95.40480228066464 -29.03171662039213 L94.56599043170294 -29.277438055939985 L93.41334760943269 -28.640629380807226 L92.50311893104364 -27.89687632904645 L91.69665652869668 -27.771741848251665 L91.25885379431992 -28.040614325466294 L90.7305139505678 -28.064953925075756 L90.01582889197118 -28.296438503527217 L89.47581017452111 -28.042758897406397 L88.81424848832056 -27.299315904239364 L88.73032596227856 -28.086864732367516 L88.12044070836987 -27.876541652939594 L86.9545170430006 -27.974261786403517 L85.82331994013151 -28.203575954698707 L85.01163821812304 -28.642773952747344 L84.23457970575015 -28.839893703724698 L83.89899295444673 -29.320226141877658 L83.33711510613719 -29.463731594352197 L82.32751264845088 -30.115268052688137 L81.52580447787474 -30.42271698660863 L81.11125613802932 -30.183480943313402 L79.7213668151071 -30.88271474865473 L78.73889448437401 -31.515906073527063 L78.45844648632601 -32.61816437431273 L79.17612877799553 -32.48377981213771 L79.20889163606859 -32.994394639613716 L78.81108646028574 -33.50619802503242 L78.91226891471322 -34.32193634697579 L77.83745079947457 -35.494009507787766 L76.19284834178569 -35.89840342868783 L75.89689741405013 -36.666806138651836 L75.15802778514092 -37.13303091078912 L74.98000247589542 -37.419990139305895 L74.8299857929521 -37.9900070257014 L74.86481570831683 -38.3788463404816 L74.25751427602273 -38.60650686294345 L73.92885216664644 -38.50581533462274 L73.6753792662548 -39.4312368841056 L73.96001305531843 -39.660008449861735 L73.8222436868283 -39.893973497063186 L74.77686242055606 -40.36642527929163 L75.4678279967307 -40.56207225194867 L76.52636803579745 -40.42794607193512 L76.90448449087708 -41.06648590754965 L78.18719689322597 -41.18531586360481 L78.54366092317531 -41.58224254003869 L80.11943037305139 -42.12394074153825 L80.2599902688853 -42.34999929459906 z " fill-rule="evenodd" fill="white" stroke="black" stroke-width="0.1%"></path><path d="M35.71991824722275 -32.709192409794866 L35.54566531753454 -32.393992011030576 L35.183930291491436 -32.53251068778894 L34.97464074070933 -31.866582343059722 L35.22589155451243 -31.754341132121766 L34.970506626125996 -31.61677846936081 L34.92740848159457 -31.353435370401414 L35.397560662586045 -31.489086005167582 L35.420918409981965 -31.100065822874356 L34.92260257339143 -29.501326198844524 L34.823243288783814 -29.76108076171822 L34.26544 -31.21936 L34.26543474464621 -31.21935730952032 L34.26543338393569 -31.219360866820153 L34.55637169773891 -31.548823960896996 L34.48810713068136 -31.60553884533732 L34.75258711115117 -32.07292633720117 L34.95541710789678 -32.82737641044638 L35.098457472480675 -33.080539252244265 L35.126052687324545 -33.09090037691878 L35.460709262846706 -33.08904002535628 L35.55279666519081 -33.26427480725802 L35.82110070165024 -33.2774264592763 L35.836396925608625 -32.86812327730851 L35.70079796727475 -32.71601369885738 L35.71991824722275 -32.709192409794866 z " fill-rule="evenodd" fill="white" stroke="black" stroke-width="0.1%"></path><path d="M35.82110070165024 -33.2774264592763 L35.55279666519081 -33.26427480725802 L35.460709262846706 -33.08904002535628 L35.126052687324545 -33.09090037691878 L35.48220665868013 -33.90545014091944 L35.9795923194894 -34.61005829521913 L35.99840254084364 -34.644914048800004 L36.4481942075121 -34.59393524834407 L36.61175011571589 -34.20178864189718 L36.066460402172055 -33.82491242119255 L35.82110070165024 -33.2774264592763 z " fill-rule="evenodd" fill="white" stroke="black" stroke-width="0.1%"></path><path d="M35.71991824722275 -32.709192409794866 L35.70079796727475 -32.71601369885738 L35.836396925608625 -32.86812327730851 L35.82110070165024 -33.2774264592763 L36.066460402172055 -33.82491242119255 L36.61175011571589 -34.20178864189718 L36.4481942075121 -34.59393524834407 L35.99840254084364 -34.644914048800004 L35.905023227692226 -35.410009467097325 L36.149762811026534 -35.82153473565367 L36.417550083163036 -36.04061697035506 L36.6853890317318 -36.259699205056464 L36.7394942563414 -36.81752045343109 L37.06676110204583 -36.62303620050062 L38.1677274920242 -36.90121043552777 L38.6998913917659 -36.71292735447234 L39.52258019385255 -36.71605377862599 L40.67325931169569 -37.09127635349729 L41.21208947120305 -37.074352321921694 L42.34959109881177 -37.2298725449041 L41.83706424334096 -36.605853786763575 L41.289707472505455 -36.35881460219227 L41.383965285005814 -35.628316555314356 L41.006158888519934 -34.41937226006212 L38.792340529136084 -33.378686428352225 L36.834062127435544 -32.312937526980775 L35.71991824722275 -32.709192409794866 z " fill-rule="evenodd" fill="white" stroke="black" stroke-width="0.1%"></path><path d="M35.397560662586045 -31.489086005167582 L34.92740848159457 -31.353435370401414 L34.970506626125996 -31.61677846936081 L35.22589155451243 -31.754341132121766 L34.97464074070933 -31.866582343059722 L35.183930291491436 -32.53251068778894 L35.54566531753454 -32.393992011030576 L35.5452519060762 -31.78250478772084 L35.397560662586045 -31.489086005167582 z " fill-rule="evenodd" fill="white" stroke="black" stroke-width="0.1%"></path><path d="M32.73178022637745 -35.14002594658844 L32.919572381326134 -35.08783274997364 L33.19097700372305 -35.17312470147138 L33.3838334490363 -35.16271190036457 L33.45592207208347 -35.10142365166641 L33.47581749851585 -35.000344550103506 L33.5256852556775 -35.03868846286407 L33.675391880027064 -35.01786286065045 L33.86643965021011 -35.09359467217419 L33.97361657078346 -35.058506374648005 L34.00488081232004 -34.97809784600186 L32.97982710137845 -34.57186941175544 L32.49029625827754 -34.701654771456475 L32.25666710788596 -35.10323232679663 L32.73178022637745 -35.14002594658844 z " fill-rule="evenodd" fill="white" stroke="black" stroke-width="0.1%"></path><path d="M126.17475874237624 -37.74968577732804 L126.23733890188176 -37.84037791600028 L126.68371992401893 -37.80477285415118 L127.07330854706737 -38.2561148137884 L127.78003543509101 -38.30453563084589 L128.20574588431145 -38.37039724380189 L128.34971642467661 -38.61224294692785 L129.21291954968007 -37.43239248305595 L129.46044966035817 -36.78418915460283 L129.4683044780665 -35.63214061130395 L129.0913765809296 -35.082484239231434 L128.1858504578791 -34.89037710218639 L127.3865194031884 -34.47567373304412 L126.48574751190876 -34.39004588473648 L126.37391971242914 -34.934560451795946 L126.55923139862779 -35.6845405136479 L126.11739790253229 -36.72548472751926 L126.86014326386339 -36.893924058574626 L126.17475874237624 -37.74968577732804 z " fill-rule="evenodd" fill="white" stroke="black" stroke-width="0.1%"></path><path d="M130.78000366004676 -42.220007813203225 L130.78000485358513 -42.22001036108258 L130.78000735893113 -42.22000722916885 L130.78000366004676 -42.220007813203225 z " fill-rule="evenodd" fill="white" stroke="black" stroke-width="0.1%"></path><path d="M130.63999970690955 -42.39502427522179 L130.6400000000001 -42.395 L130.77999231657833 -42.22000960427719 L130.40003055228902 -42.28000356705971 L129.96594852103726 -41.94136790625106 L129.66736209525482 -41.60110443782523 L129.70518924369247 -40.88282786718433 L129.18811486218 -40.66180776627199 L129.01039961152821 -40.485436102859815 L128.63336836152672 -40.18984691015031 L127.96741417858135 -40.02541250259756 L127.53343550019417 -39.7568500839767 L127.5021195822253 -39.32393077245153 L127.38543419811027 -39.213472398427655 L127.78334272675772 -39.05089834243742 L128.34971642467661 -38.61224294692785 L128.20574588431145 -38.37039724380189 L127.78003543509101 -38.30453563084589 L127.07330854706737 -38.2561148137884 L126.68371992401893 -37.80477285415118 L126.23733890188176 -37.84037791600028 L126.17475874237624 -37.74968577732804 L125.68910363169721 -37.94001007745902 L125.5684391622957 -37.75208873142962 L125.2753304383362 -37.669070542952724 L125.24008711151316 -37.85722443292744 L124.98103315643397 -37.94882090916478 L124.71216067921938 -38.10834605564979 L124.98599409393398 -38.54847422947968 L125.2219486837787 -38.66585724543067 L125.13285851450752 -38.84855927179859 L125.3865897970606 -39.387957872061165 L125.32111575734682 -39.55138458918421 L124.7374821310424 -39.66034434667162 L124.26562462778531 -39.928493353834156 L125.07994184784064 -40.56982371679245 L126.18204511932943 -41.10733612727637 L126.86908328664987 -41.81656932226619 L127.34378299368302 -41.50315176041597 L128.20843305879066 -41.46677155208249 L128.0522152039723 -41.99428457291795 L129.59666873587952 -42.42498179785456 L129.99426720593323 -42.985386867843786 L130.63999970690955 -42.39502427522179 z " fill-rule="evenodd" fill="white" stroke="black" stroke-width="0.1%"></path><path d="M91.69665652869668 -27.771741848251665 L92.10371178585974 -27.452614040633208 L92.03348351437509 -26.83831045176356 L91.21751264848643 -26.808648179628022 L90.37327477413407 -26.87572418874288 L89.74452762243885 -26.719402981059957 L88.83564253128938 -27.098966376243762 L88.81424848832056 -27.299315904239364 L89.47581017452111 -28.042758897406397 L90.01582889197118 -28.296438503527217 L90.7305139505678 -28.064953925075756 L91.25885379431992 -28.040614325466294 L91.69665652869668 -27.771741848251665 z " fill-rule="evenodd" fill="white" stroke="black" stroke-width="0.1%"></path><path d="M55.208341098863194 -22.708329982997046 L55.234489373602884 -23.110992743415324 L55.525841098864475 -23.524869289640932 L55.52863162620824 -23.933604030853502 L55.98121382022046 -24.13054291431783 L55.804118686756226 -24.269604193615265 L55.88623253766801 -24.920830593357447 L56.396847365144005 -24.924732163995486 L56.845140415276006 -24.241673081961505 L57.4034525897574 -23.878594468678813 L58.13694786970825 -23.74793060962881 L58.72921146020542 -23.56566783293536 L59.18050174341033 -22.992395331305474 L59.45009769067703 -22.6602709009656 L59.80806033716286 -22.533611965418217 L59.806148309168066 -22.310524807214193 L59.442191196536385 -21.714540513592027 L59.28240766788991 -21.43388580981485 L58.86114139184656 -21.114034532144302 L58.48798587426694 -20.428985907467094 L58.034318475176605 -20.481437486243337 L57.826372511634105 -20.24300242764863 L57.665762160070955 -19.73600495043307 L57.788700392493325 -19.067570298737678 L57.694390903560645 -18.94470958096376 L57.234263950433814 -18.947991034414287 L56.60965091332193 -18.574267076079465 L56.51218916201947 -18.087113348863966 L56.28352094912793 -17.876066799383963 L55.66149173363064 -17.884128322821496 L55.26993940615512 -17.632309068263197 L55.27490034365513 -17.22835439703762 L54.79100223167404 -16.95069692633338 L54.23925296409371 -17.044980577049913 L53.570508253804576 -16.707662665264706 L53.10857262554751 -16.651051133688952 L52.78218427919205 -17.349742336491232 L52.00000980002224 -19.000003363516058 L54.99998172386236 -19.999994004796108 L55.666659376859826 -22.00000112557234 L55.208341098863194 -22.708329982997046 z " fill-rule="evenodd" fill="white" stroke="black" stroke-width="0.1%"></path><path d="M56.261041701080956 -25.71460643157677 L56.07082075381456 -26.05546417897398 L56.36201744977927 -26.39593435312898 L56.48567915225374 -26.309117946878633 L56.39142133975335 -25.895990708921246 L56.261041701080956 -25.71460643157677 z " fill-rule="evenodd" fill="white" stroke="black" stroke-width="0.1%"></path><path d="M55.96819135928291 -41.30864166926936 L55.928917270741096 -44.99585846615911 L58.50312706892845 -45.586804307632974 L58.68998904809581 -45.50001373959873 L60.23997195825834 -44.78403677019473 L61.05831994003245 -44.40581696225051 L62.01330040878625 -43.50447663021565 L63.18578698105657 -43.650074978198006 L64.90082441595928 -43.72808055274258 L66.09801232286509 -42.997660020513095 L66.02339155463562 -41.99464630794404 L66.51064863471572 -41.987644151368556 L66.71404707221652 -41.1684435084615 L67.98585574735182 -41.13599070898222 L68.25989586779562 -40.6623245305949 L68.63248294462002 -40.66868073176681 L69.07002729683524 -41.38424428971234 L70.3889648782208 -42.08130768489745 L70.96231489449914 -42.266154283205495 L71.25924767444823 -42.16771067968946 L70.42002241402821 -41.51999827734314 L71.1578585142916 -41.14358714452912 L71.87011478057047 -41.392900092121266 L73.05541710804917 -40.866033026689465 L71.77487511585656 -40.14584442805378 L71.01419803252017 -40.24436554621823 L70.60140669137269 -40.21852733007229 L70.45815962105962 -40.49649485937029 L70.66662234892505 -40.960213324541414 L69.32949466337283 -40.72782440852485 L69.0116329283455 -40.08615814875667 L68.53641645698943 -39.53345286717894 L67.70142866401736 -39.58047842056453 L67.44221967964131 -39.140143541005486 L68.17602501818592 -38.901553453113905 L68.39203250516596 -38.15702525486874 L67.82999962755952 -37.144994004864685 L67.07578209825962 -37.35614390720929 L66.51860680528867 -37.36278432875879 L66.54615034370022 -37.97468496352687 L65.2159989765074 -38.4026950139843 L64.17022301621677 -38.892406724598246 L63.51801476426103 -39.36325653742564 L62.374260288345006 -40.05388621679039 L61.88271406438469 -41.084856879229406 L61.54717898951356 -41.266370347654615 L60.465952996670694 -41.22032664648255 L60.083340691981675 -41.425146185871405 L59.976422153569786 -42.22308197689021 L58.62901085799146 -42.75155101172305 L57.78652998233708 -42.17055288346552 L56.932215203687804 -41.826026109375604 L57.0963912290791 -41.32231008561057 L55.96819135928291 -41.30864166926936 z " fill-rule="evenodd" fill="white" stroke="black" stroke-width="0.1%"></path><path d="M87.35997033076265 -49.21498078062912 L86.59877648310336 -48.549181626980626 L85.7682328633083 -48.45575063739699 L85.72048383987067 -47.452969468773105 L85.16429039911324 -47.0009557155161 L83.18048383986047 -47.33003123635086 L82.45892581576906 -45.539649563166506 L81.9470707539181 -45.31702749285312 L79.96610639844141 -44.91751699480463 L80.86620649610126 -43.18036204688101 L80.1801501809943 -42.92006785742694 L80.2599902688853 -42.34999929459906 L79.64364546094012 -42.49668284765953 L79.14217736197978 -42.85609243424952 L77.65839196158322 -42.96068553320826 L76.00035363149846 -42.98802236589067 L75.63696495962202 -42.87789988867668 L74.21286583852256 -43.29833934180337 L73.64530358266092 -43.09127187760987 L73.48975752146237 -42.50089447689132 L71.8446382994506 -42.8453954127651 L71.18628055205212 -42.70429291439214 L70.96231489449914 -42.266154283205495 L70.3889648782208 -42.08130768489745 L69.07002729683524 -41.38424428971234 L68.63248294462002 -40.66868073176681 L68.25989586779562 -40.6623245305949 L67.98585574735182 -41.13599070898222 L66.71404707221652 -41.1684435084615 L66.51064863471572 -41.987644151368556 L66.02339155463562 -41.99464630794404 L66.09801232286509 -42.997660020513095 L64.90082441595928 -43.72808055274258 L63.18578698105657 -43.650074978198006 L62.01330040878625 -43.50447663021565 L61.05831994003245 -44.40581696225051 L60.23997195825834 -44.78403677019473 L58.68998904809581 -45.50001373959873 L58.50312706892845 -45.586804307632974 L55.928917270741096 -44.99585846615911 L55.96819135928291 -41.30864166926936 L55.45525109235377 -41.25985911718584 L54.75534549339264 -42.043971462566574 L54.07941775901495 -42.32410940202083 L52.944293247291654 -42.11603424739759 L52.50245975119615 -41.78331553808637 L52.44633914572722 -42.027150783855575 L52.692112257707265 -42.44389537207337 L52.50142622255032 -42.7922978785852 L51.342427199108215 -43.132974758469345 L50.89129194520024 -44.03103363705378 L50.339129266161365 -44.284015611338475 L50.30564293803627 -44.609835516938915 L51.278503452363225 -44.51485423438646 L51.31689904155604 -45.2459982366679 L52.16738976421573 -45.40839142514511 L53.0408764992452 -45.25904653582177 L53.220865512917726 -46.234645901059935 L53.042736850807785 -46.85300608986449 L52.04202273947561 -46.80463694923924 L51.191945428274266 -47.048704738953916 L50.03408328634248 -46.60898997658222 L49.10116000000011 -46.399330000000134 L48.59325000000018 -46.56104 L48.694733514201744 -47.07562816017793 L48.05725 -47.74377 L47.31524000000013 -47.7158500000001 L46.46644575377627 -48.39415233010493 L47.04367150247651 -49.152038886097614 L46.75159630716274 -49.35600576435377 L47.54948042174931 -50.454698391311126 L48.57784142435753 -49.87475962991567 L48.70238162618102 -50.60512848571284 L50.76664839051216 -51.6927623561599 L52.32872358583097 -51.718652248738124 L54.532878452376224 -51.02623973245932 L55.71694 -50.62171000000018 L56.77798000000013 -51.04355 L58.36332 -51.06364 L59.642282342370606 -50.545442206415714 L59.93280724471549 -50.842194118851864 L61.337424350840934 -50.79907013610426 L61.58800337102417 -51.272658799843214 L59.967533807215545 -51.9604204372157 L60.92726850774028 -52.44754832621504 L60.73999311711458 -52.71998647725775 L61.699986199800605 -52.97999644633427 L60.978066440683165 -53.66499339457914 L61.43660000000017 -54.00625 L65.17853356309593 -54.35422781027211 L65.66687 -54.60125000000011 L68.16910037625883 -54.97039175070432 L69.06816694527288 -55.38525014914353 L70.86526655465514 -55.169733588270105 L71.18013105660941 -54.13328522400826 L72.22415001820218 -54.376655381886735 L73.5085160663844 -54.0356167669766 L73.42567874542044 -53.489810289109755 L74.38482000000016 -53.54685000000012 L76.89110029491343 -54.49052440044193 L76.52517947785475 -54.17700348572714 L77.80091556184425 -53.404414984747575 L80.03555952344169 -50.86475088154725 L80.56844689323549 -51.38833649352847 L81.94598554883993 -50.81219594990637 L83.38300377801238 -51.069182847693924 L83.93511478061885 -50.88924551045358 L84.41637739455308 -50.311399644565824 L85.11555952346203 -50.11730296487764 L85.54126997268247 -49.69285858824816 L86.82935672398963 -49.82667470966817 L87.35997033076265 -49.21498078062912 z " fill-rule="evenodd" fill="white" stroke="black" stroke-width="0.1%"></path><path d="M87.75126427607671 -49.297197984405486 L88.80556684769552 -49.47052073831242 L90.71366743364068 -50.33181183532109 L92.23471154171968 -50.80217072204172 L93.10421 -50.49529 L94.14756635943559 -50.48053660745717 L94.81594933469873 -50.01343333597085 L95.8140200000002 -49.97746000000012 L97.25976000000014 -49.72605 L98.23176150919156 -50.422400621128745 L97.82573978067431 -51.01099518493318 L98.86149051310034 -52.04736603454669 L99.98173221232354 -51.63400625264399 L100.88948042196262 -51.51685578063832 L102.06521 -51.25991 L102.25589 -50.51056000000011 L103.67654544476022 -50.089966132195116 L104.62158 -50.27532000000019 L105.88659142458675 -50.406019192092224 L106.8888041524553 -50.27429596618032 L107.86817589725095 -49.793705145865815 L108.47516727095129 -49.28254771585074 L109.40244917199664 -49.292960516957635 L110.66201053267878 -49.13012807880585 L111.58123091028662 -49.37796824807769 L112.89773969935436 -49.54356537535699 L114.36245649623527 -50.24830272073741 L114.96210981655018 -50.140247300815126 L115.48569542853136 -49.80517731383475 L116.67880089728612 -49.888531399121405 L116.19180219936757 -49.134598090199106 L115.48528201707306 -48.13538259540344 L115.74283735561579 -47.72654450132629 L116.30895267137323 -47.85341014260284 L117.29550744025741 -47.69770905210743 L118.06414269416672 -48.06673045510369 L118.86657433479495 -47.74706004494617 L119.7728239278975 -47.04805878355013 L119.66326989143876 -46.69267995867892 L118.87432579963873 -46.80541209572365 L117.42170128791419 -46.67273285581426 L116.71786828009886 -46.38820241961521 L115.98509647020009 -45.727235012386004 L114.46033165899607 -45.339816799493825 L113.46390669154417 -44.80889313412712 L112.43606245325881 -45.01164561622429 L111.8733061056003 -45.10207937273506 L111.34837690637946 -44.45744171811009 L111.66773725794323 -44.07317576758771 L111.82958784388137 -43.74311839453952 L111.12968224492023 -43.40683401140015 L110.41210330611528 -42.87123362891103 L109.24359581913146 -42.5194463160841 L107.74477257693795 -42.48151581478187 L106.12931562706169 -42.13432770442891 L104.96499393109347 -41.59740957291635 L104.52228193564899 -41.908346666016556 L103.31227827353482 -41.9074681666676 L101.83304039917994 -42.51487295182628 L100.84586551310827 -42.66380442969145 L99.51581749878004 -42.524691473961724 L97.45175744017801 -42.74888967546002 L96.34939578652781 -42.725635280928685 L95.76245486855669 -43.319449164394605 L95.30687544147153 -44.24133087826547 L94.68892866412533 -44.35233185482842 L93.4807336771413 -44.975472113619965 L92.13389082231822 -45.11507599545646 L90.9455395853343 -45.28607330991028 L90.58576826371828 -45.71971609148753 L90.97080936072501 -46.88814606382293 L90.28082563676392 -47.69354909930793 L88.85429772334676 -48.069081732772965 L88.01383222855173 -48.599462795600616 L87.75126427607671 -49.297197984405486 z " fill-rule="evenodd" fill="white" stroke="black" stroke-width="0.1%"></path><path d="M104.33433475140347 -10.48654368737523 L105.19991499229235 -10.889309800658097 L106.24967003786946 -10.961811835163587 L105.81052371625313 -11.567614650921229 L107.49140302941089 -12.337205918827948 L107.61454796756243 -13.535530707244206 L107.38272749230109 -14.202440904186972 L107.5645251811039 -15.20217316330556 L107.3127059265456 -15.90853831630318 L106.55600792849569 -16.604283962464805 L105.92576216026403 -17.48531545660896 L105.09459842328152 -18.66697459561108 L103.89653201702671 -19.265180975821806 L104.18338789267894 -19.62466807706022 L104.8225736836971 -19.886641750563882 L104.43500044150805 -20.75873322192153 L103.20386111858645 -20.76656220141375 L102.75489627483466 -21.675137233969465 L102.17043582561358 -22.464753119389304 L102.7069922221001 -22.708795070887675 L103.50451460166056 -22.70375661873921 L104.47685835166448 -22.819150092046968 L105.32920942588663 -23.352063300056912 L105.81124718630522 -22.976892401617903 L106.72540327354847 -22.79426788989842 L106.56727339073532 -22.21820486092477 L107.04342003787264 -21.811898912029914 L108.05018029178294 -21.55237986906012 L106.7150679870901 -20.69685069425202 L105.88168216351903 -19.752050482659698 L105.66200564984631 -19.05816518806057 L106.42681684776602 -18.004120998603227 L107.36195356651974 -16.697456569887052 L108.26949507042963 -16.07974233648615 L108.87710656131748 -15.27669057867044 L109.33526981001722 -13.426028347217724 L109.20013593957398 -11.666859239137764 L108.36612999881545 -11.008320624226272 L107.22092858279524 -10.364483954301832 L106.40511274620343 -9.53083974856932 L105.15826378786511 -8.599759629750494 L104.79518517458239 -9.241038316276502 L105.07620161338562 -9.918490505406808 L104.33433475140347 -10.48654368737523 z " fill-rule="evenodd" fill="white" stroke="black" stroke-width="0.1%"></path><path d="M67.82999962755952 -37.144994004864685 L68.39203250516596 -38.15702525486874 L68.17602501818592 -38.901553453113905 L67.44221967964131 -39.140143541005486 L67.70142866401736 -39.58047842056453 L68.53641645698943 -39.53345286717894 L69.0116329283455 -40.08615814875667 L69.32949466337283 -40.72782440852485 L70.66662234892505 -40.960213324541414 L70.45815962105962 -40.49649485937029 L70.60140669137269 -40.21852733007229 L71.01419803252017 -40.24436554621823 L70.64801883329997 -39.93575389257117 L69.55960981636852 -40.10321137141298 L69.46488691597753 -39.5266832545487 L70.54916181832562 -39.6041979029865 L71.784693637992 -39.27946320246437 L73.6753792662548 -39.4312368841056 L73.92885216664644 -38.50581533462274 L74.25751427602273 -38.60650686294345 L74.86481570831683 -38.3788463404816 L74.8299857929521 -37.9900070257014 L74.98000247589542 -37.419990139305895 L73.9486959166465 -37.4215662704908 L73.26005577992501 -37.495256862939 L72.63688968291729 -37.047558091778356 L72.1930408059624 -36.948287665345674 L71.8446382994506 -36.73817129164692 L71.44869347523024 -37.06564484308052 L71.54191775908478 -37.905774441065645 L71.23940392444817 -37.953265082341886 L71.34813113799026 -38.25890534113216 L70.80682050973289 -38.486281643216415 L70.3763041523093 -38.13839590102752 L70.27057417184014 -37.735164699854025 L70.11657840361033 -37.58822276463209 L69.51878543485796 -37.60899669041342 L69.19627282092438 -37.15114350030743 L68.85944583524594 -37.344335842430596 L68.13556237170138 -37.02311513930431 L67.82999962755952 -37.144994004864685 z " fill-rule="evenodd" fill="white" stroke="black" stroke-width="0.1%"></path><path d="M51.57951867046327 -24.245497137951105 L51.757440626844186 -24.29407298430547 L51.79438927593287 -24.019826158132506 L52.57708051942561 -24.177439276622707 L53.404006788960146 -24.15131684009917 L54.00800092958758 -24.121757920828216 L54.69302371604863 -24.79789236093509 L55.43902469261414 -25.43914520924494 L56.07082075381456 -26.05546417897398 L56.261041701080956 -25.71460643157677 L56.396847365144005 -24.924732163995486 L55.88623253766801 -24.920830593357447 L55.804118686756226 -24.269604193615265 L55.98121382022046 -24.13054291431783 L55.52863162620824 -23.933604030853502 L55.525841098864475 -23.524869289640932 L55.234489373602884 -23.110992743415324 L55.208341098863194 -22.708329982997046 L55.006803012924905 -22.496947536707136 L52.000733270074335 -23.00115448657894 L51.61770755392698 -24.01421926522883 L51.57951867046327 -24.245497137951105 z " fill-rule="evenodd" fill="white" stroke="black" stroke-width="0.1%"></path><path d="M102.5849324890267 -12.186594956913282 L102.34809939983302 -13.394247341358223 L102.98842207236163 -14.225721136934467 L104.28141808473661 -14.416743068901367 L105.21877689007889 -14.273211778210694 L106.04394616091552 -13.881091009979956 L106.49637332563088 -14.570583807834282 L107.38272749230109 -14.202440904186972 L107.61454796756243 -13.535530707244206 L107.49140302941089 -12.337205918827948 L105.81052371625313 -11.567614650921229 L106.24967003786946 -10.961811835163587 L105.19991499229235 -10.889309800658097 L104.33433475140347 -10.48654368737523 L103.4972799011397 -10.632555446815928 L103.09068973186726 -11.153660590047165 L102.5849324890267 -12.186594956913282 z " fill-rule="evenodd" fill="white" stroke="black" stroke-width="0.1%"></path><path d="M39.955008579270924 -43.43499766699922 L40.07696495947977 -43.553104153002316 L40.922190000000114 -43.38215000000014 L42.39440000000013 -43.2203 L43.75599000000011 -42.74083 L43.931210000000135 -42.55496000000011 L44.537622918481986 -42.71199270280363 L45.47027916848572 -42.50278066666998 L45.7764 -42.09244000000018 L46.404950799348825 -41.860675157227305 L46.14543175637902 -41.72280243587258 L46.63790815612058 -41.181672675128226 L46.50163740416693 -41.06444468847411 L45.96260053893039 -41.123872585609774 L45.217426385281584 -41.41145193131405 L44.97248009621808 -41.248128567055595 L43.58274580259273 -41.09214325618257 L42.61954878110449 -41.58317271581994 L41.55408410011066 -41.53565623632757 L41.70317060727271 -41.96294281673292 L41.45347008643839 -42.64512339941794 L40.87546919125379 -43.013628038091284 L40.32139448422032 -43.128633938156845 L39.955008579270924 -43.43499766699922 z " fill-rule="evenodd" fill="white" stroke="black" stroke-width="0.1%"></path><path d="M46.404950799348825 -41.860675157227305 L46.68607059101661 -41.82713715266988 L47.37331546406623 -41.2197323675112 L47.81566572448463 -41.15141612402135 L47.98728315612598 -41.40581920019423 L48.58435339611342 -41.80886879162067 L49.110263706260696 -41.28228668880051 L49.6189148293096 -40.57292430272996 L50.08482954285313 -40.52615713150581 L50.39282107931268 -40.25656118423912 L49.569202101444795 -40.176100979160665 L49.395259230350376 -39.39948171646225 L49.22322838725071 -39.04921885838793 L48.85653242370759 -38.81548635513178 L48.88324913920249 -38.32024526626262 L48.63437544128482 -38.27037750910097 L48.01074425638648 -38.79401479751452 L48.35552941263788 -39.28876496027691 L48.06009524922524 -39.58223541926246 L47.685079380083096 -39.50836395930122 L46.50571984231797 -38.770605373686294 L46.48349897643246 -39.464154771475535 L46.034534132680676 -39.628020738273065 L45.61001224140293 -39.89999380142518 L45.89190717955509 -40.21847565364 L45.35917483905817 -40.56150381119346 L45.56035118997045 -40.812289537105926 L45.17949588397934 -40.98535390885141 L44.97248009621808 -41.248128567055595 L45.217426385281584 -41.41145193131405 L45.96260053893039 -41.123872585609774 L46.50163740416693 -41.06444468847411 L46.63790815612058 -41.181672675128226 L46.14543175637902 -41.72280243587258 L46.404950799348825 -41.860675157227305 z " fill-rule="evenodd" fill="white" stroke="black" stroke-width="0.1%"></path><path d="M46.14362308124882 -38.74120148371222 L45.45772179543877 -38.87413910578306 L44.95268802265031 -39.33576467544637 L44.79398969908195 -39.71300263117705 L45.00198733905675 -39.740003567049555 L45.29814497252146 -39.471751207022436 L45.73997846861698 -39.47399913182713 L45.73537926614301 -39.31971914321974 L46.14362308124882 -38.74120148371222 z " fill-rule="evenodd" fill="white" stroke="black" stroke-width="0.1%"></path><path d="M44.77267710159504 -37.17043692561684 L44.29345177590287 -37.0015143906063 L43.9422587420473 -37.25622752537295 L42.77912560402183 -37.385263576805755 L42.34959109881177 -37.2298725449041 L41.21208947120305 -37.074352321921694 L40.67325931169569 -37.09127635349729 L39.52258019385255 -36.71605377862599 L38.6998913917659 -36.71292735447234 L38.1677274920242 -36.90121043552777 L37.06676110204583 -36.62303620050062 L36.7394942563414 -36.81752045343109 L36.6853890317318 -36.259699205056464 L36.417550083163036 -36.04061697035506 L36.149762811026534 -35.82153473565367 L35.782084995269855 -36.27499542901485 L36.160821567537 -36.65060557712833 L35.55093631362831 -36.565442816711325 L34.714553256984345 -36.7955321314909 L34.026894972476384 -36.219960028624016 L32.509158156064075 -36.107563788389186 L31.699595167779567 -36.64427521417258 L30.621624790171097 -36.6778648951623 L30.391096225717064 -36.26298065850699 L29.69997562024554 -36.144357408180994 L28.732902866335422 -36.67683136651647 L27.641186557737317 -36.65882212986274 L27.048767937943264 -37.653360907536 L26.318218214633045 -38.208133246405396 L26.804700148228733 -38.985760199533516 L26.17078535330433 -39.463612168936464 L27.28001997244939 -40.42001373957831 L28.81997765474722 -40.46001129817221 L29.240003696415584 -41.21999074967267 L31.14593387220444 -41.08762156835702 L32.34797936374571 -41.736264146484615 L33.51328291192746 -42.01896006933731 L35.167703891751785 -42.040224921225416 L36.9131270688421 -41.33535838476427 L38.34766482926452 -40.94858612727573 L39.512606642420195 -41.10276276301855 L40.373432651538224 -41.01367259374735 L41.55408410011066 -41.53565623632757 L42.61954878110449 -41.58317271581994 L43.58274580259273 -41.09214325618257 L43.75265791196841 -40.74020091405876 L43.65643639504094 -40.253563951166186 L44.4000085792887 -40.00500031184228 L44.79398969908195 -39.71300263117705 L44.10922529478234 -39.4281362981681 L44.421402622257546 -38.28128123631454 L44.22575564960053 -37.97158437758935 L44.77267 -37.17045 L44.77267710159504 -37.17043692561684 z " fill-rule="evenodd" fill="white" stroke="black" stroke-width="0.1%"></path><path d="M26.1170418637208 -41.82690460872456 L27.13573937349048 -42.14148489030134 L27.99672041190539 -42.00735871028779 L28.115524529744416 -41.62288605403624 L28.988442824018733 -41.29993419042819 L28.806438429486743 -41.05496206314856 L27.61901736828409 -40.99982330989314 L27.19237674328238 -40.69056570084242 L26.35800906749779 -40.151993923496505 L26.04335127127257 -40.61775360774317 L26.05694217296534 -40.82412344010076 L26.294602085075667 -40.93626129817413 L26.60419559093623 -41.562114569661105 L26.1170418637208 -41.82690460872456 z " fill-rule="evenodd" fill="white" stroke="black" stroke-width="0.1%"></path><path d="M107.38272749230109 -14.202440904186972 L106.49637332563088 -14.570583807834282 L106.04394616091552 -13.881091009979956 L105.21877689007889 -14.273211778210694 L105.54433841351769 -14.723933620660418 L105.58903852745016 -15.570316066952858 L104.7793205098688 -16.44186493577145 L104.7169470560925 -17.42885895433008 L103.9564766784853 -18.24095408779688 L103.20019209189374 -18.309632066312773 L102.99870568238771 -17.9616946476916 L102.41300499879162 -17.932781683824288 L102.11359175009248 -18.109101670804165 L101.05954756063517 -17.51249725999449 L101.03593143107777 -18.408928330961615 L101.2820146016517 -19.462584947176765 L100.60629357300316 -19.508344427971224 L100.54888105672688 -20.109237982661128 L100.11598758341785 -20.417849636308187 L100.32910119018953 -20.786121731036232 L101.18000532430754 -21.436572984294028 L101.27002566935997 -21.201651923095184 L101.80311974488293 -21.17436676684507 L101.65201785686152 -22.318198757409547 L102.17043582561358 -22.464753119389304 L102.75489627483466 -21.675137233969465 L103.20386111858645 -20.76656220141375 L104.43500044150805 -20.75873322192153 L104.8225736836971 -19.886641750563882 L104.18338789267894 -19.62466807706022 L103.89653201702671 -19.265180975821806 L105.09459842328152 -18.66697459561108 L105.92576216026403 -17.48531545660896 L106.55600792849569 -16.604283962464805 L107.3127059265456 -15.90853831630318 L107.5645251811039 -15.20217316330556 L107.38272749230109 -14.202440904186972 z " fill-rule="evenodd" fill="white" stroke="black" stroke-width="0.1%"></path><path d="M70.96231489449914 -42.266154283205495 L71.18628055205212 -42.70429291439214 L71.8446382994506 -42.8453954127651 L73.48975752146237 -42.50089447689132 L73.64530358266092 -43.09127187760987 L74.21286583852256 -43.29833934180337 L75.63696495962202 -42.87789988867668 L76.00035363149846 -42.98802236589067 L77.65839196158322 -42.96068553320826 L79.14217736197978 -42.85609243424952 L79.64364546094012 -42.49668284765953 L80.2599902688853 -42.34999929459906 L80.11943037305139 -42.12394074153825 L78.54366092317531 -41.58224254003869 L78.18719689322597 -41.18531586360481 L76.90448449087708 -41.06648590754965 L76.52636803579745 -40.42794607193512 L75.4678279967307 -40.56207225194867 L74.77686242055606 -40.36642527929163 L73.8222436868283 -39.893973497063186 L73.96001305531843 -39.660008449861735 L73.6753792662548 -39.4312368841056 L71.784693637992 -39.27946320246437 L70.54916181832562 -39.6041979029865 L69.46488691597753 -39.5266832545487 L69.55960981636852 -40.10321137141298 L70.64801883329997 -39.93575389257117 L71.01419803252017 -40.24436554621823 L71.77487511585656 -40.14584442805378 L73.05541710804917 -40.866033026689465 L71.87011478057047 -41.392900092121266 L71.1578585142916 -41.14358714452912 L70.42002241402821 -41.51999827734314 L71.25924767444823 -42.16771067968946 L70.96231489449914 -42.266154283205495 z " fill-rule="evenodd" fill="white" stroke="black" stroke-width="0.1%"></path><path d="M46.50571984231797 -38.770605373686294 L46.14362308124882 -38.74120148371222 L45.73537926614301 -39.31971914321974 L45.73997846861698 -39.47399913182713 L45.29814497252146 -39.471751207022436 L45.00198733905675 -39.740003567049555 L44.79398969908195 -39.71300263117705 L44.4000085792887 -40.00500031184228 L43.65643639504094 -40.253563951166186 L43.75265791196841 -40.74020091405876 L43.58274580259273 -41.09214325618257 L44.97248009621808 -41.248128567055595 L45.17949588397934 -40.98535390885141 L45.56035118997045 -40.812289537105926 L45.35917483905817 -40.56150381119346 L45.89190717955509 -40.21847565364 L45.61001224140293 -39.89999380142518 L46.034534132680676 -39.628020738273065 L46.48349897643246 -39.464154771475535 L46.50571984231797 -38.770605373686294 z " fill-rule="evenodd" fill="white" stroke="black" stroke-width="0.1%"></path><path d="M48.567971225789755 -29.926778265903522 L48.0145683123761 -30.452456773392598 L48.004698113808324 -30.985137437457244 L47.68528608581227 -30.984853217079632 L47.8492037290421 -31.70917593029867 L47.33466149271191 -32.46915538179911 L46.10936160663932 -33.017287299119005 L45.41669070819904 -33.967797756479584 L45.64845950702809 -34.748137722303014 L46.15178795755094 -35.09325877536429 L46.0763403664048 -35.67738332777549 L45.42061811705321 -35.977545884742824 L44.77267710159504 -37.17043692561684 L44.77267 -37.17045 L44.22575564960053 -37.97158437758935 L44.421402622257546 -38.28128123631454 L44.10922529478234 -39.4281362981681 L44.79398969908195 -39.71300263117705 L44.95268802265031 -39.33576467544637 L45.45772179543877 -38.87413910578306 L46.14362308124882 -38.74120148371222 L46.50571984231797 -38.770605373686294 L47.685079380083096 -39.50836395930122 L48.06009524922524 -39.58223541926246 L48.35552941263788 -39.28876496027691 L48.01074425638648 -38.79401479751452 L48.63437544128482 -38.27037750910097 L48.88324913920249 -38.32024526626262 L49.19961225769334 -37.582874253889884 L50.14777143738462 -37.37456655532134 L50.84235436381971 -36.8728142359834 L52.264024692601424 -36.7004216578577 L53.82578982932642 -36.965030829408235 L53.92159793479556 -37.19891836196126 L54.800303989486565 -37.392420762678185 L55.51157840355191 -37.96411713312317 L56.18037479027333 -37.93512665460743 L56.61936608259282 -38.121394354803485 L57.330433790928986 -38.02922943781094 L58.436154412678206 -37.5223094752438 L59.23476199731681 -37.41298798273034 L60.37763797388388 -36.52738312432837 L61.123070509694145 -36.491597194966246 L61.210817091725744 -35.650072333309225 L60.80319339380745 -34.40410187431986 L60.52842980331158 -33.676446031218006 L60.963700392506006 -33.52883230237626 L60.536077915290775 -32.98126882581157 L60.863654819588966 -32.18291962333443 L60.94194461451113 -31.548074652628753 L61.69931440618083 -31.379506130492672 L61.781221551363444 -30.735850328081238 L60.87424848820879 -29.829238999952608 L61.36930870956494 -29.303276272085924 L61.77186811711863 -28.6993338078908 L62.72783043808599 -28.25964488373539 L62.75542565292986 -27.378923448184988 L63.2338977395203 -27.21704702403071 L63.31663170761959 -26.756532497661667 L61.87418745305655 -26.239974880472104 L61.49736290878419 -25.0782370061185 L59.616134067630846 -25.380156561783778 L58.525761346272304 -25.60996165618573 L57.39725141788239 -25.73990204518364 L56.970765822177555 -26.966106268821363 L56.492138706290206 -27.143304755150197 L55.723710158110066 -26.964633490501043 L54.71508955263727 -26.480657863871514 L53.49309695823135 -26.81236888275305 L52.48359785340961 -27.580849107365495 L51.52076256694742 -27.865689602158298 L50.85294803243954 -28.814520575469388 L50.115008579311585 -30.147772528599717 L49.576850213423995 -29.985715236932407 L48.94133344909855 -30.317090359004037 L48.567971225789755 -29.926778265903522 z " fill-rule="evenodd" fill="white" stroke="black" stroke-width="0.1%"></path><path d="M50.81010827006958 -24.754742539971378 L50.74391076030369 -25.482424221289396 L51.013351678273494 -26.006991685484195 L51.28646162293606 -26.11458201751587 L51.58907881043726 -25.80111277923338 L51.60670047384881 -25.21567047779874 L51.38960778179063 -24.62738597258806 L51.11241539897702 -24.556330878186724 L50.81010827006958 -24.754742539971378 z " fill-rule="evenodd" fill="white" stroke="black" stroke-width="0.1%"></path><path d="M77.83745079947457 -35.494009507787766 L76.87172163280403 -34.65354401299274 L75.75706098826834 -34.50492259372132 L74.24020267120497 -34.748887030571254 L73.74994835805197 -34.31769887952785 L74.10429365427734 -33.44147329358685 L74.45155927927871 -32.7648996038055 L75.25864179881322 -32.2711054550405 L74.40592898956501 -31.69263947196528 L74.42138024282028 -30.979814764931177 L73.45063846221743 -29.97641347911987 L72.8237516620847 -28.961591701772054 L71.77766564320032 -27.913180243434525 L70.61649620960193 -27.989196275335868 L69.51439293811313 -26.940965684511372 L70.16892662952202 -26.491871649678842 L70.2828731627256 -25.72222870533983 L70.84469933460284 -25.21510203704352 L71.04324018746823 -24.3565239527302 L68.84259931831878 -24.35913361256094 L68.1766451353734 -23.69196503345671 L67.44366661974547 -23.94484365487699 L67.14544192898907 -24.663611151624647 L66.37282758979327 -25.42514089609385 L64.53040774929113 -25.23703868255143 L62.90570071803461 -25.21840932871021 L61.49736290878419 -25.0782370061185 L61.87418745305655 -26.239974880472104 L63.31663170761959 -26.756532497661667 L63.2338977395203 -27.21704702403071 L62.75542565292986 -27.378923448184988 L62.72783043808599 -28.25964488373539 L61.77186811711863 -28.6993338078908 L61.36930870956494 -29.303276272085924 L60.87424848820879 -29.829238999952608 L62.54985680527278 -29.31857249604431 L63.55026085801117 -29.468330796826166 L64.14800215033125 -29.340819200145972 L64.35041873561852 -29.560030625928093 L65.0468620136161 -29.472180691031905 L66.34647260932442 -29.887943427036177 L66.38145755398602 -30.738899237586452 L66.93889122911847 -31.304911200479353 L67.68339358914747 -31.30315420178142 L67.79268924344478 -31.58293040620963 L68.55693200060932 -31.713310044882018 L68.92667687365767 -31.620189113892067 L69.31776411324256 -31.901412258424443 L69.26252200712256 -32.5019440780883 L69.68714725126486 -33.105498969041236 L70.3235941913716 -33.35853261975839 L69.9305432473596 -34.02012014417511 L70.8818030129884 -33.98885590263852 L71.15677330921346 -34.34891144463215 L71.11501875192164 -34.733125718722235 L71.61307620635071 -35.153203436822864 L71.49876793812109 -35.650563259416 L71.26234826038575 -36.074387518857804 L71.84629194528392 -36.50994232842986 L72.92002485544447 -36.72000702569632 L74.06755171091783 -36.83617564548845 L74.57589277537298 -37.02084137628346 L75.15802778514092 -37.13303091078912 L75.89689741405013 -36.666806138651836 L76.19284834178569 -35.89840342868783 L77.83745079947457 -35.494009507787766 z " fill-rule="evenodd" fill="white" stroke="black" stroke-width="0.1%"></path><path d="M34.95603722508426 -29.356554673778845 L36.06894087092206 -29.197494615184453 L36.50121422704359 -29.505253607698705 L36.74052778498725 -29.86528331147619 L37.503581984209035 -30.003776150018407 L37.66811974462638 -30.3386652694859 L37.998848911294374 -30.508499864213135 L37.00216556168101 -31.508412990844747 L39.00488569515255 -32.01021698661498 L39.19546837744497 -32.16100881604267 L40.399994337736246 -31.889991766887935 L41.889980910007836 -31.19000865327837 L44.70949873228474 -29.178891099559383 L46.568713413281756 -29.09902517345229 L47.45982181172283 -29.002519436147224 L47.708850538937384 -28.526062730416143 L48.416094191283946 -28.55200429942667 L48.80759484232718 -27.689627997339883 L49.29955447774583 -27.46121816660981 L49.47091352722566 -27.109999294538085 L50.15242231629088 -26.689663194275997 L50.212935418504685 -26.277026882425375 L50.11330325704594 -25.94397227630425 L50.239858839728754 -25.608049628190926 L50.527386509000735 -25.327808335872103 L50.66055667501689 -24.999895534764022 L50.81010827006958 -24.754742539971378 L51.11241539897702 -24.556330878186724 L51.38960778179063 -24.62738597258806 L51.57951867046327 -24.245497137951105 L51.61770755392698 -24.01421926522883 L52.000733270074335 -23.00115448657894 L55.006803012924905 -22.496947536707136 L55.208341098863194 -22.708329982997046 L55.666659376859826 -22.00000112557234 L54.99998172386236 -19.999994004796108 L52.00000980002224 -19.000003363516058 L49.11667158386487 -18.616667588774945 L48.18334354024134 -18.166669216377315 L47.46669477721763 -17.116681626854884 L47.000004917189756 -16.949999294497445 L46.74999433776165 -17.283338120996177 L46.366658563020536 -17.233315334537636 L45.39999922056876 -17.333335069238558 L45.21665123879719 -17.433328965723334 L44.06261315285508 -17.410358791569593 L43.79151858905192 -17.31997671149111 L43.380794305196105 -17.57998668056767 L43.11579756040336 -17.088440456607373 L43.21837527850275 -16.66688996018641 L42.77933230975097 -16.347891343648683 L42.649572788266084 -16.774635321514964 L42.34798912941071 -17.075805568912003 L42.270887892431226 -17.474721787989125 L41.75438195167396 -17.833046169500975 L41.22139122901558 -18.67159963630121 L40.93934126156654 -19.486485297111756 L40.247652215339826 -20.17463450772649 L39.80168460466095 -20.338862209550058 L39.139399448408284 -21.291904812092934 L39.023695916506796 -21.986875311770195 L39.06632897314759 -22.57965566659027 L38.49277225114008 -23.688451036060854 L38.02386030452362 -24.078685614512935 L37.483634881344386 -24.285494696545015 L37.154817742671185 -24.85848297779731 L37.209491408036 -25.084541530858107 L36.93162723160259 -25.60295949961018 L36.639603712721225 -25.826227525327223 L36.249136590323815 -26.57013560638488 L35.64018151219639 -27.376520494083422 L35.13018680190788 -28.06335195567472 L34.63233605320798 -28.058546047471566 L34.787778761541944 -28.6074272730597 L34.832220493312946 -28.957483425404845 L34.95603722508426 -29.356554673778845 z " fill-rule="evenodd" fill="white" stroke="black" stroke-width="0.1%"></path><path d="M39.19546837744497 -32.16100881604267 L38.792340529136084 -33.378686428352225 L41.006158888519934 -34.41937226006212 L41.383965285005814 -35.628316555314356 L41.289707472505455 -36.35881460219227 L41.83706424334096 -36.605853786763575 L42.34959109881177 -37.2298725449041 L42.77912560402183 -37.385263576805755 L43.9422587420473 -37.25622752537295 L44.29345177590287 -37.0015143906063 L44.77267710159504 -37.17043692561684 L45.42061811705321 -35.977545884742824 L46.0763403664048 -35.67738332777549 L46.15178795755094 -35.09325877536429 L45.64845950702809 -34.748137722303014 L45.41669070819904 -33.967797756479584 L46.10936160663932 -33.017287299119005 L47.33466149271191 -32.46915538179911 L47.8492037290421 -31.70917593029867 L47.68528608581227 -30.984853217079632 L48.004698113808324 -30.985137437457244 L48.0145683123761 -30.452456773392598 L48.567971225789755 -29.926778265903522 L47.974519077349896 -29.975819200148504 L47.30262210469096 -30.059069932570722 L46.568713413281756 -29.09902517345229 L44.70949873228474 -29.178891099559383 L41.889980910007836 -31.19000865327837 L40.399994337736246 -31.889991766887935 L39.19546837744497 -32.16100881604267 z " fill-rule="evenodd" fill="white" stroke="black" stroke-width="0.1%"></path><path d="M105.21877689007889 -14.273211778210694 L104.28141808473661 -14.416743068901367 L102.98842207236163 -14.225721136934467 L102.34809939983302 -13.394247341358223 L102.5849324890267 -12.186594956913282 L101.68715783081996 -12.645740057826572 L100.83180952352487 -12.627084865769206 L100.9784672383692 -13.412721665902566 L100.09779747925111 -13.406856390837433 L100.01873253784456 -12.307001044153354 L99.47892052612363 -10.846366685423547 L99.15377241414316 -9.963061428258555 L99.22239871622676 -9.239255479362427 L99.87383182169813 -9.20786204674512 L100.27964684448622 -8.295152899606052 L100.45927412313276 -7.429572658717177 L101.01732791545273 -6.856868597842478 L101.62307905477806 -6.74062246340192 L102.14118696493638 -6.221636053894628 L101.81428185425798 -5.810808417174242 L101.15421878459387 -5.691384182147715 L101.07551557821336 -6.204867051615921 L100.25959638875696 -6.642824815289543 L100.0857568705271 -6.464489447450291 L99.69069054565576 -6.848212795433597 L99.51964155476963 -7.34345388430276 L98.9882528015123 -7.907993068875328 L98.503786248776 -8.382305202666288 L98.339661899817 -7.794511623562386 L98.15000939330582 -8.350007432483878 L98.25915001830626 -8.973922837759801 L98.55355065307305 -9.932959906448545 L99.03812055867398 -10.960545762572437 L99.58728600463972 -11.892762762901697 L99.19635379435167 -12.80474843998867 L99.21201175333609 -13.269293728076464 L99.09775516153876 -13.827502549693278 L98.43081912637987 -14.622027696180837 L98.1920740091914 -15.123702500870351 L98.53737592976572 -15.308497422746084 L98.90334842325676 -16.17782420497612 L98.49376102091135 -16.83783559820793 L97.85912275593486 -17.567946071843664 L97.37589643757354 -18.445437730375815 L97.79778283080441 -18.627080389881755 L98.25372399291561 -19.708203029860044 L98.95967573445488 -19.752980658440947 L99.54330936075931 -20.186597601802063 L100.11598758341785 -20.417849636308187 L100.54888105672688 -20.109237982661128 L100.60629357300316 -19.508344427971224 L101.2820146016517 -19.462584947176765 L101.03593143107777 -18.408928330961615 L101.05954756063517 -17.51249725999449 L102.11359175009248 -18.109101670804165 L102.41300499879162 -17.932781683824288 L102.99870568238771 -17.9616946476916 L103.20019209189374 -18.309632066312773 L103.9564766784853 -18.24095408779688 L104.7169470560925 -17.42885895433008 L104.7793205098688 -16.44186493577145 L105.58903852745016 -15.570316066952858 L105.54433841351769 -14.723933620660418 L105.21877689007889 -14.273211778210694 z " fill-rule="evenodd" fill="white" stroke="black" stroke-width="0.1%"></path><path d="M47.974519077349896 -29.975819200148504 L48.18318851094449 -29.534476630159762 L48.09394331237642 -29.306299343375002 L48.416094191283946 -28.55200429942667 L47.708850538937384 -28.526062730416143 L47.45982181172283 -29.002519436147224 L46.568713413281756 -29.09902517345229 L47.30262210469096 -30.059069932570722 L47.974519077349896 -29.975819200148504 z " fill-rule="evenodd" fill="white" stroke="black" stroke-width="0.1%"></path><path d="M100.11598758341785 -20.417849636308187 L99.54330936075931 -20.186597601802063 L98.95967573445488 -19.752980658440947 L98.25372399291561 -19.708203029860044 L97.79778283080441 -18.627080389881755 L97.37589643757354 -18.445437730375815 L97.85912275593486 -17.567946071843664 L98.49376102091135 -16.83783559820793 L98.90334842325676 -16.17782420497612 L98.53737592976572 -15.308497422746084 L98.1920740091914 -15.123702500870351 L98.43081912637987 -14.622027696180837 L99.09775516153876 -13.827502549693278 L99.21201175333609 -13.269293728076464 L99.19635379435167 -12.80474843998867 L99.58728600463972 -11.892762762901697 L99.03812055867398 -10.960545762572437 L98.55355065307305 -9.932959906448545 L98.45717410684873 -10.67526601810515 L98.76454552612078 -11.441291612183749 L98.42833865762985 -12.032986761925685 L98.50957400919268 -13.122377631070677 L98.1036039571077 -13.640459703012851 L97.77773237507517 -14.837285874892642 L97.59707156778276 -16.10056793869977 L97.1645398294998 -16.92873444260934 L96.505768670643 -16.42724050543285 L95.3693522481124 -15.7143899601826 L94.80840457558412 -15.80345429123764 L94.18880415240454 -16.037936102762018 L94.53348595579135 -17.277240301985728 L94.32481652219676 -18.2135139022499 L93.54098839719364 -19.366492621330025 L93.66325483599621 -19.726961574781996 L93.07827762245219 -19.855144965081976 L92.36855350135562 -20.670883287025347 L92.30323449093868 -21.47548533780982 L92.65225711463799 -21.324047552978485 L92.67272098182556 -22.041238918541254 L93.16612755734837 -22.278459580977103 L93.06029422401463 -22.70311066333557 L93.28632693885928 -23.043658352139005 L93.3251876159428 -24.078556423432204 L94.10674197792507 -23.85074087167348 L94.55265791217164 -24.675238348890336 L94.60324913938538 -25.162495428970402 L95.1551534362626 -26.001307277932085 L95.12476769407496 -26.5735720891323 L96.41936567585097 -27.264589341739224 L97.1339990580153 -27.083773505149964 L97.0519885599681 -27.69905894623315 L97.40256147663614 -27.882536119085444 L97.32711388549004 -28.26158274994634 L97.91198774616944 -28.335945136014345 L98.2462309102333 -27.74722138112918 L98.68269005737046 -27.50881216075062 L98.71209394734451 -26.743535874940267 L98.67183800658916 -25.918702500913525 L97.72460900267914 -25.083637193293 L97.60471967976198 -23.897404690033042 L98.66026248575577 -24.063286037689966 L98.89874922078278 -23.14272207284253 L99.5319922220874 -22.94903880461258 L99.24089887898725 -22.11831431730458 L99.98348921102149 -21.7429367131364 L100.41653771362738 -21.558839423096614 L101.15003299357825 -21.849984442629022 L101.18000532430754 -21.436572984294028 L100.32910119018953 -20.786121731036232 L100.11598758341785 -20.417849636308187 z " fill-rule="evenodd" fill="white" stroke="black" stroke-width="0.1%"></path><path d="M115.45071048386981 -5.447729803891534 L115.40570031134361 -4.955227565933839 L115.34746097215066 -4.316636053887009 L114.8695573263154 -4.348313706881925 L114.65959598191353 -4.007636826997754 L114.20401655482837 -4.525873928236805 L114.59996137904872 -4.900011298029966 L115.45071048386981 -5.447729803891534 z " fill-rule="evenodd" fill="white" stroke="black" stroke-width="0.1%"></path><path d="M124.96868248911623 8.892790215697083 L125.08624637258026 8.65688730228468 L125.94707238169826 8.432094821815035 L126.64470421763855 8.398246758663852 L126.95724328013983 8.273344821814398 L127.33592817597463 8.397316582882603 L126.96799197805655 8.668256117388893 L125.9258850444586 9.106007175333353 L125.08852013560109 9.393173109579294 L125.07001997284061 9.089987481322872 L124.96868248911623 8.892790215697083 z " fill-rule="evenodd" fill="white" stroke="black" stroke-width="0.1%"></path><path d="M92.67272098182556 -22.041238918541254 L92.65225711463799 -21.324047552978485 L92.30323449093868 -21.47548533780982 L92.36855350135562 -20.670883287025347 L92.08288618364614 -21.19219513598577 L92.02521528520839 -21.701569729086767 L91.83489098507744 -22.182935695885565 L91.41708702999766 -22.76501902922122 L90.49600630082728 -22.80501658781513 L90.58695682166098 -22.392793687422866 L90.27297081905556 -21.83636770272011 L89.84746707556428 -22.039146023033425 L89.70204959509493 -21.857115790285306 L89.41886274613549 -21.9661789006373 L89.03196129756623 -22.055708319582976 L88.87631188350309 -22.87914642993783 L88.52976972855379 -23.631141872649167 L88.69994022009092 -24.23371491138856 L88.08442223506242 -24.501657212821925 L88.30637251175602 -24.866079413344206 L88.93155398962308 -25.238692328384776 L88.2097892598025 -25.768065700782714 L88.56304935094977 -26.446525580342723 L89.35509402868729 -26.014407253518073 L89.83248091019962 -25.96508209889548 L89.92069258012185 -25.26974986419218 L90.87221072791212 -25.132600612889547 L91.79959598182208 -25.147431748957317 L92.37620161333481 -24.976692816664965 L91.91509280799443 -24.130413723237112 L91.46772993364368 -24.072639471934792 L91.15896325069973 -23.50352692310439 L91.70647505083211 -22.985263983649187 L91.86992760617132 -23.624346421802784 L92.14603478390681 -23.627498684172593 L92.67272098182556 -22.041238918541254 z " fill-rule="evenodd" fill="white" stroke="black" stroke-width="0.1%"></path><path d="M66.51860680528867 -37.36278432875879 L67.07578209825962 -37.35614390720929 L67.82999962755952 -37.144994004864685 L68.13556237170138 -37.02311513930431 L68.85944583524594 -37.344335842430596 L69.19627282092438 -37.15114350030743 L69.51878543485796 -37.60899669041342 L70.11657840361033 -37.58822276463209 L70.27057417184014 -37.735164699854025 L70.3763041523093 -38.13839590102752 L70.80682050973289 -38.486281643216415 L71.34813113799026 -38.25890534113216 L71.23940392444817 -37.953265082341886 L71.54191775908478 -37.905774441065645 L71.44869347523024 -37.06564484308052 L71.8446382994506 -36.73817129164692 L72.1930408059624 -36.948287665345674 L72.63688968291729 -37.047558091778356 L73.26005577992501 -37.495256862939 L73.9486959166465 -37.4215662704908 L74.98000247589542 -37.419990139305895 L75.15802778514092 -37.13303091078912 L74.57589277537298 -37.02084137628346 L74.06755171091783 -36.83617564548845 L72.92002485544447 -36.72000702569632 L71.84629194528392 -36.50994232842986 L71.26234826038575 -36.074387518857804 L71.49876793812109 -35.650563259416 L71.61307620635071 -35.153203436822864 L71.11501875192164 -34.733125718722235 L71.15677330921346 -34.34891144463215 L70.8818030129884 -33.98885590263852 L69.9305432473596 -34.02012014417511 L70.3235941913716 -33.35853261975839 L69.68714725126486 -33.105498969041236 L69.26252200712256 -32.5019440780883 L69.31776411324256 -31.901412258424443 L68.92667687365767 -31.620189113892067 L68.55693200060932 -31.713310044882018 L67.79268924344478 -31.58293040620963 L67.68339358914747 -31.30315420178142 L66.93889122911847 -31.304911200479353 L66.38145755398602 -30.738899237586452 L66.34647260932442 -29.887943427036177 L65.0468620136161 -29.472180691031905 L64.35041873561852 -29.560030625928093 L64.14800215033125 -29.340819200145972 L63.55026085801117 -29.468330796826166 L62.54985680527278 -29.31857249604431 L60.87424848820879 -29.829238999952608 L61.781221551363444 -30.735850328081238 L61.69931440618083 -31.379506130492672 L60.94194461451113 -31.548074652628753 L60.863654819588966 -32.18291962333443 L60.536077915290775 -32.98126882581157 L60.963700392506006 -33.52883230237626 L60.52842980331158 -33.676446031218006 L60.80319339380745 -34.40410187431986 L61.210817091725744 -35.650072333309225 L62.230651483005886 -35.270663967422294 L62.98466230657661 -35.40404083916762 L63.19353844590035 -35.857165635718914 L63.98289594915871 -36.0079574651466 L64.5464791197339 -36.31207326918427 L64.7461051776774 -37.111817735333304 L65.58894778835784 -37.30521678318564 L65.74563073106683 -37.66116404881207 L66.21738488145934 -37.39379018813392 L66.51860680528867 -37.36278432875879 z " fill-rule="evenodd" fill="white" stroke="black" stroke-width="0.1%"></path><path d="M35.54566531753454 -32.393992011030576 L35.71991824722275 -32.709192409794866 L36.834062127435544 -32.312937526980775 L38.792340529136084 -33.378686428352225 L39.19546837744497 -32.16100881604267 L39.00488569515255 -32.01021698661498 L37.00216556168101 -31.508412990844747 L37.998848911294374 -30.508499864213135 L37.66811974462638 -30.3386652694859 L37.503581984209035 -30.003776150018407 L36.74052778498725 -29.86528331147619 L36.50121422704359 -29.505253607698705 L36.06894087092206 -29.197494615184453 L34.95603722508426 -29.356554673778845 L34.92260257339143 -29.501326198844524 L35.420918409981965 -31.100065822874356 L35.397560662586045 -31.489086005167582 L35.5452519060762 -31.78250478772084 L35.54566531753454 -32.393992011030576 z " fill-rule="evenodd" fill="white" stroke="black" stroke-width="0.1%"></path><path d="M52.50245975119615 -41.78331553808637 L52.944293247291654 -42.11603424739759 L54.07941775901495 -42.32410940202083 L54.75534549339264 -42.043971462566574 L55.45525109235377 -41.25985911718584 L55.96819135928291 -41.30864166926936 L57.0963912290791 -41.32231008561057 L56.932215203687804 -41.826026109375604 L57.78652998233708 -42.17055288346552 L58.62901085799146 -42.75155101172305 L59.976422153569786 -42.22308197689021 L60.083340691981675 -41.425146185871405 L60.465952996670694 -41.22032664648255 L61.54717898951356 -41.266370347654615 L61.88271406438469 -41.084856879229406 L62.374260288345006 -40.05388621679039 L63.51801476426103 -39.36325653742564 L64.17022301621677 -38.892406724598246 L65.2159989765074 -38.4026950139843 L66.54615034370022 -37.97468496352687 L66.51860680528867 -37.36278432875879 L66.21738488145934 -37.39379018813392 L65.74563073106683 -37.66116404881207 L65.58894778835784 -37.30521678318564 L64.7461051776774 -37.111817735333304 L64.5464791197339 -36.31207326918427 L63.98289594915871 -36.0079574651466 L63.19353844590035 -35.857165635718914 L62.98466230657661 -35.40404083916762 L62.230651483005886 -35.270663967422294 L61.210817091725744 -35.650072333309225 L61.123070509694145 -36.491597194966246 L60.37763797388388 -36.52738312432837 L59.23476199731681 -37.41298798273034 L58.436154412678206 -37.5223094752438 L57.330433790928986 -38.02922943781094 L56.61936608259282 -38.121394354803485 L56.18037479027333 -37.93512665460743 L55.51157840355191 -37.96411713312317 L54.800303989486565 -37.392420762678185 L53.92159793479556 -37.19891836196126 L53.73551110211252 -37.90613617609169 L53.880928582581845 -38.95209300389536 L53.1010278664329 -39.29057363540713 L53.35780805849123 -39.97528636327445 L52.69397260926982 -40.03362905533197 L52.915251092343624 -40.87652334244473 L53.858139275941134 -40.63103445084218 L54.73684533063215 -40.95101491959346 L54.008310988181314 -41.55121084244742 L53.72171349469059 -42.12319143327003 L52.916749708880076 -41.86811656347733 L52.81468875510362 -41.13537059179471 L52.50245975119615 -41.78331553808637 z " fill-rule="evenodd" fill="white" stroke="black" stroke-width="0.1%"></path><path d="M88.12044070836987 -27.876541652939594 L88.04313276566123 -27.445818589786825 L88.17480431514092 -26.81040517832595 L88.06023766474982 -26.41461538340249 L87.2274719583663 -26.397898057556077 L86.02439293817918 -26.63098460540857 L85.25177859898338 -26.726198431906344 L84.6750179381738 -27.234901231387536 L83.30424889519955 -27.36450572357556 L81.99998742058497 -27.925479234319994 L81.05720258985203 -28.416095282499043 L80.08842451367627 -28.79447011974014 L80.4767212259174 -29.72986522065534 L81.11125613802932 -30.183480943313402 L81.52580447787474 -30.42271698660863 L82.32751264845088 -30.115268052688137 L83.33711510613719 -29.463731594352197 L83.89899295444673 -29.320226141877658 L84.23457970575015 -28.839893703724698 L85.01163821812304 -28.642773952747344 L85.82331994013151 -28.203575954698707 L86.9545170430006 -27.974261786403517 L88.12044070836987 -27.876541652939594 z " fill-rule="evenodd" fill="white" stroke="black" stroke-width="0.1%"></path><path d="M52.00000980002224 -19.000003363516058 L52.78218427919205 -17.349742336491232 L53.10857262554751 -16.651051133688952 L52.38520592632588 -16.382411200419654 L52.19172936382509 -15.93843313238402 L52.1681649107 -15.597420355689948 L51.172515089732485 -15.175249742081492 L49.57457645040315 -14.708766587782748 L48.67923058451416 -14.00320241948566 L48.23894738138742 -13.948089504446372 L47.938914015500785 -14.007233181204427 L47.354453566279716 -13.592219753468383 L46.717076450391744 -13.39969920496502 L45.87759280781027 -13.347764390511685 L45.62505008319988 -13.290946153206763 L45.406458774605255 -13.026905422411433 L45.14435591002086 -12.95393830001531 L44.989533318874415 -12.69958690027471 L44.49457645038285 -12.721652736863348 L44.17511274595449 -12.585950425664876 L43.48295861183713 -12.636800035040084 L43.22287112811213 -13.220950425667425 L43.25144819516953 -13.767583726450852 L43.08794396339806 -14.06263031662131 L42.892245314308724 -14.802249253798749 L42.60487267433362 -15.213335272680595 L42.80501549660005 -15.261962795467255 L42.70243777850066 -15.718885809791999 L42.823670688657415 -15.911742255105267 L42.77933230975097 -16.347891343648683 L43.21837527850275 -16.66688996018641 L43.11579756040336 -17.088440456607373 L43.380794305196105 -17.57998668056767 L43.79151858905192 -17.31997671149111 L44.06261315285508 -17.410358791569593 L45.21665123879719 -17.433328965723334 L45.39999922056876 -17.333335069238558 L46.366658563020536 -17.233315334537636 L46.74999433776165 -17.283338120996177 L47.000004917189756 -16.949999294497445 L47.46669477721763 -17.116681626854884 L48.18334354024134 -18.166669216377315 L49.11667158386487 -18.616667588774945 L52.00000980002224 -19.000003363516058 z " fill-rule="evenodd" fill="white" stroke="black" stroke-width="0.1%"></path><path d="M32.73178022637745 -35.14002594658844 L32.80247358575275 -35.14550364841138 L32.946960890440806 -35.3867033961337 L33.667227003724946 -35.37321584730552 L34.576473829900465 -35.67159556735879 L33.900804477684204 -35.245755927057616 L33.97361657078346 -35.058506374648005 L33.86643965021011 -35.09359467217419 L33.675391880027064 -35.01786286065045 L33.5256852556775 -35.03868846286407 L33.47581749851585 -35.000344550103506 L33.45592207208347 -35.10142365166641 L33.3838334490363 -35.16271190036457 L33.19097700372305 -35.17312470147138 L32.919572381326134 -35.08783274997364 L32.73178022637745 -35.14002594658844 z " fill-rule="evenodd" fill="white" stroke="black" stroke-width="0.1%"></path><path d="M121.77781782438993 -24.3942735865194 L121.17563235889274 -22.790857245367167 L120.74707970589623 -21.970571397382113 L120.22008344938368 -22.81486094816674 L120.1061885926124 -23.556262722258236 L120.69467980355225 -24.538450832613737 L121.49504438688878 -25.295458889257386 L121.95124393116146 -24.997595933527037 L121.77781782438993 -24.3942735865194 z " fill-rule="evenodd" fill="white" stroke="black" stroke-width="0.1%"></path><path d="M120.83389611214656 -12.704496161342433 L120.32343631396745 -13.466413479053825 L121.18012820850211 -13.429697373910443 L121.5273938335035 -13.06959015548452 L121.26219038298159 -12.205560207564403 L120.83389611214656 -12.704496161342433 z " fill-rule="evenodd" fill="white" stroke="black" stroke-width="0.1%"></path><path d="M122.5860889018671 -9.981044826696134 L122.83708133350875 -10.261156927934225 L122.9474105164519 -10.88186839440806 L123.49884972543845 -10.94062449792392 L123.33777428598472 -10.267383938025404 L124.0779358257012 -11.232725531453738 L123.98243777882584 -10.278778591345755 L123.62318322153271 -9.950090643753299 L123.30992068897939 -9.318268744336706 L122.99588300994166 -9.022188625520414 L122.38005496631942 -9.713360907424217 L122.5860889018671 -9.981044826696134 z " fill-rule="evenodd" fill="white" stroke="black" stroke-width="0.1%"></path><path d="M126.37681359263745 -8.414706325713297 L126.47851281138789 -7.750354112168978 L126.53742394420061 -7.189380601424545 L126.19677290253259 -6.274294338400054 L125.83142052622907 -7.293715318221842 L125.36385216685221 -6.786485297060949 L125.68316084198369 -6.049656887227272 L125.39651167206063 -5.581003322772276 L124.21978763234239 -6.161355495626154 L123.9387195171069 -6.885135606306136 L124.24366214406128 -7.360610459823661 L123.61021243702749 -7.83352732994274 L123.29607140512519 -7.418875637232759 L122.82550581267537 -7.457374579290204 L122.08549930225573 -6.899424139834836 L121.91992801319256 -7.192119452336015 L122.31235884001705 -8.034962063016465 L122.94239790251959 -8.316236883981134 L123.48768761606347 -8.69300975182118 L123.84115441293983 -8.240324204944372 L124.60146976125021 -8.514157619659002 L124.76461225799562 -8.960409450715488 L125.47139082245155 -8.986996975129657 L125.41211795461277 -9.760334784377534 L126.2227144715431 -9.286074327018866 L126.30663699758514 -8.78248749433456 L126.37681359263745 -8.414706325713297 z " fill-rule="evenodd" fill="white" stroke="black" stroke-width="0.1%"></path><path d="M118.50458092659036 -9.316382554558047 L117.17427453010066 -8.367499904814679 L117.66447716682137 -9.066888739452892 L118.38691369026175 -9.68449961998921 L118.98734215706105 -10.376292019080523 L119.51149620979751 -11.3696680770272 L119.68967654833989 -10.554291490109875 L119.02945844937892 -10.003653265823829 L118.50458092659036 -9.316382554558047 z " fill-rule="evenodd" fill="white" stroke="black" stroke-width="0.1%"></path><path d="M122.336956821788 -18.224882717354106 L122.17427941293317 -17.810282701076403 L122.5156539246533 -17.093504746971973 L122.25231082569393 -16.26244436285407 L121.66278608610821 -15.931017564350142 L121.50506961475342 -15.124813544164622 L121.7288285665772 -14.328376369682275 L122.25892540902726 -14.21820221603599 L122.70127566944569 -14.336541245984378 L123.9502950379403 -13.782130642141027 L123.85510704965867 -13.237771104378425 L124.18128869028493 -12.9975273706535 L124.0774190613783 -12.536676947474575 L123.29803510955225 -13.02752553959894 L122.92865197152994 -13.552919826710422 L122.6713550151487 -13.185836289925092 L122.03464969288052 -13.784481919810304 L121.12638471891857 -13.636687323455547 L120.62863732308324 -13.857655747935596 L120.67938357959386 -14.271015529838294 L120.99181928923053 -14.52539276779504 L120.69333621631267 -14.756670640517312 L120.56414513558299 -14.396279201713796 L120.07042850146644 -14.970869452367126 L119.92092858284605 -15.406346747290739 L119.88377322802819 -16.363704331929995 L120.28648766487875 -16.034628811095345 L120.39004723519167 -17.599081122299523 L120.71586714079191 -18.505227362537525 L121.32130822152351 -18.504064642810945 L121.9376013530364 -18.218552354398355 L122.24600630095429 -18.478949896717097 L122.336956821788 -18.224882717354106 z " fill-rule="evenodd" fill="white" stroke="black" stroke-width="0.1%"></path><path d="M122.03837039600555 -11.415840969279998 L121.88354780485909 -11.891755072471994 L122.48382124236149 -11.582187404827538 L123.12021650603594 -11.583660183147856 L123.10083784392646 -11.16593374271649 L122.63771365772669 -10.74130849857417 L122.00261030485957 -10.441016750526089 L121.96736697803652 -10.905691229694625 L122.03837039600555 -11.415840969279998 z " fill-rule="evenodd" fill="white" stroke="black" stroke-width="0.1%"></path><path d="M125.50255171112354 -12.162694606978292 L125.78346479706221 -11.046121934447783 L125.01188398651226 -11.311454576050409 L125.03276126515817 -10.975816148314692 L125.27744917206019 -10.358722032101284 L124.80181928924577 -10.134678859899864 L124.76016808481853 -10.837995103392258 L124.45910119028605 -10.889929917845592 L124.30252160044171 -11.495370998577187 L124.89101281138153 -11.415582587118536 L124.87799035044401 -11.794189968304947 L124.26676150929569 -12.557760931849671 L125.22711632700788 -12.53572093347718 L125.50255171112354 -12.162694606978292 z " fill-rule="evenodd" fill="white" stroke="black" stroke-width="0.1%"></path><path d="M81.7879590188914 -7.523055324733164 L81.63732221876059 -6.481775214051922 L81.21801964714433 -6.197141424988288 L80.34835696810441 -5.968369859232155 L79.87246870312853 -6.76346344647493 L79.69516686393513 -8.200843410673386 L80.14780073437964 -9.824077663609557 L80.83881798698656 -9.268426825391188 L81.30431928907177 -8.56420624433369 L81.7879590188914 -7.523055324733164 z " fill-rule="evenodd" fill="white" stroke="black" stroke-width="0.1%"></path><path d="M141.88460086483497 -39.180864569651476 L140.95948937394581 -38.17400096287662 L140.97638756730527 -37.14207428644019 L140.5997697287621 -36.3439834661245 L140.77407433488258 -35.842877102190215 L140.2532792502451 -35.138113918593646 L138.9755277853962 -34.66760000257614 L137.21759891169125 -34.60628591566183 L135.79298302626893 -33.46480520276663 L135.1209827007454 -33.849071153289 L135.0794348491827 -34.596544908174806 L133.34031619683202 -34.375938218720805 L132.15677086805124 -33.90493337659652 L130.98614464734345 -33.88576142021624 L132.00003624890996 -33.149992377244544 L131.33279015515734 -31.450354519164822 L130.686317987186 -31.029579169228246 L130.2024198752049 -31.418237616495432 L130.44767622286213 -32.319474595665696 L129.81469160371893 -32.61030955660436 L129.40846316947255 -33.29605581311752 L130.35393517468464 -33.60415070244167 L130.87845096244718 -34.23274282484002 L131.8842293641439 -34.74971385348792 L132.61767296766243 -35.433393052709405 L134.6083008159777 -35.731617743465804 L135.67753787652885 -35.52713410088687 L136.72383060114242 -37.304984239240326 L137.39061160700447 -36.82739065199884 L138.8576021669062 -37.82748464614346 L139.42640465714283 -38.21596222589761 L140.054790073812 -39.43880748143637 L139.88337934789985 -40.56331248632368 L140.30578250545364 -41.19500519465953 L141.3689734234266 -41.378559882160275 L141.91426313697048 -39.991616115878685 L141.88460086483497 -39.180864569651476 z " fill-rule="evenodd" fill="white" stroke="black" stroke-width="0.1%"></path><path d="M144.61342654843963 -43.96088288021748 L145.32082523008307 -44.38473297787541 L145.5431372418027 -43.26208832455062 L144.05966189999987 -42.98835826270056 L143.18384972551723 -41.9952147486992 L141.6114909201724 -42.6787905950561 L141.06728641170668 -41.58459381770797 L139.955106235921 -41.56955597591103 L139.81754357315998 -42.563758856774385 L140.31208703019325 -43.33327261003269 L141.38054894426 -43.38882477474644 L141.67195234595386 -44.77212535255146 L141.96764489152798 -45.55148346616134 L143.14287031470974 -44.51035838477697 L143.91016198137947 -44.17409983985374 L144.61342654843963 -43.96088288021748 z " fill-rule="evenodd" fill="white" stroke="black" stroke-width="0.1%"></path><path d="M132.37117638563024 -33.46364248304006 L132.92437259331473 -34.06029857028204 L133.4929683778222 -33.94462087659667 L133.90410607313635 -34.36493113864263 L134.63842817600386 -34.149233710256354 L134.76637902235854 -33.80633474378362 L134.2034159689709 -33.20117788342964 L133.79295006727654 -33.5219851750976 L133.28026818250885 -33.28957042086489 L133.0148580262578 -32.70456736910474 L132.36311486219267 -32.989382025681394 L132.37117638563024 -33.46364248304006 z " fill-rule="evenodd" fill="white" stroke="black" stroke-width="0.1%"></path></svg>
